<svg width="792" height="432" viewBox="0 0 792 432" fill="none" xmlns="http://www.w3.org/2000/svg">
<g clip-path="url(#clip0)">
<path opacity="0.1" d="M783.333 400.805C780.261 408.387 776.478 415.662 772.036 422.533C769.952 425.809 767.667 428.952 765.193 431.944C765.171 431.974 765.145 432.002 765.117 432.027H0L0.103268 431.944C0.791726 431.407 4.83297 428.137 11.1186 422.533C15.628 418.519 21.2871 413.301 27.6416 407.022C79.6132 355.904 179.446 234.908 96.3014 124.066C19.0083 21.0246 102.229 2.32606 157.127 0.143655C178.219 -0.682633 199.26 2.75721 218.991 10.2571C244.354 19.8955 290.708 34.6698 351.099 41.4442C353.082 41.6645 355.079 41.8848 357.103 42.0845C389.076 45.34 421.265 45.9249 453.335 43.8331C454.278 43.7781 455.229 43.7092 456.185 43.6404C487.911 41.4126 519.396 36.5421 550.311 29.0795C552.315 28.5907 554.291 28.1294 556.26 27.6682C659.273 3.83378 754.239 85.0649 730.494 176.864C721.717 210.818 723.947 247.011 753.214 276.291C801.13 324.083 795.326 371.153 783.333 400.805Z" fill="#136FC4"/>
<path d="M783.334 400.807C780.261 408.389 776.478 415.664 772.036 422.534C769.953 425.81 767.667 428.953 765.193 431.945H0.103516C0.791973 431.408 4.83322 428.138 11.1188 422.534C15.6282 418.521 21.2873 413.302 27.6418 407.023L108.281 390.363C109.323 390.148 110.384 390.039 111.448 390.039L197.415 389.915H197.505L240.086 389.86H240.182L276.12 389.819H299.644H323.74L422.479 389.681H422.637H430.286H443.725H460.502H464.964L481.92 389.488H487.524L536.845 389.419H552.597H560.17L617.14 389.344H634.104L688.065 389.268L733.613 389.213C734.882 389.214 736.146 389.364 737.379 389.66L783.334 400.807Z" fill="#454B69"/>
<path opacity="0.4" d="M11.1188 422.533H772.036C769.953 425.809 767.667 428.952 765.193 431.944H0.103516C0.778204 431.373 4.81945 428.103 11.1188 422.533Z" fill="black"/>
<path d="M504.791 208.423L503.262 208.719L434.169 221.992C414.1 225.848 393.743 229.724 373.357 228.244C358.59 227.17 344.793 222.791 330.604 218.949C322.584 216.774 314.081 215.906 311.362 206.929C307.61 194.537 313.716 176.189 315.155 163.632C316.532 151.308 317.345 138.675 314.894 126.496C314.349 123.76 313.632 121.06 312.746 118.414C310.288 111.123 306.426 103.543 308.512 96.1424C310.157 90.2698 315.176 86.0771 319.871 82.1942C329.069 74.6212 338.46 66.1325 342.108 54.7799C343.898 49.2722 344.236 43.3446 346.163 37.8782C349.819 27.4825 359.003 19.7099 369.22 15.5929C379.437 11.4759 390.672 10.6016 401.694 10.6016C411.427 10.6021 421.149 11.2484 430.795 12.5361C441.315 13.913 451.931 16.1781 461.177 21.3966C470.423 26.6151 478.216 35.1657 480.371 45.589C483.421 60.3288 474.953 76.0257 479.497 90.3387C481.783 97.5744 487.07 103.419 490.739 110.042C493.731 115.582 495.578 121.668 496.17 127.937C496.761 134.205 496.085 140.529 494.182 146.531C489.789 160.141 479.036 173.91 484.543 187.108C488.048 195.501 496.998 199.982 503.235 206.633C503.79 207.23 504.309 207.826 504.791 208.423Z" fill="#454B69"/>
<path opacity="0.1" d="M503.263 206.69V208.721L434.169 221.994C414.101 225.849 393.743 229.725 373.358 228.245C358.59 227.171 344.794 222.793 330.605 218.951C322.584 216.776 314.082 215.908 311.362 206.931C307.61 194.538 313.717 176.191 315.156 163.633C316.533 151.31 337.73 106.319 335.279 94.1406L461.955 99.6483C462.809 106.375 496.289 140.136 494.203 146.587C489.81 160.198 479.057 173.967 484.564 187.165C488.075 195.557 497.025 200.039 503.263 206.69Z" fill="black"/>
<path d="M373.832 172.624C374.583 176.885 374.982 181.574 372.807 185.291C369.908 190.276 363.588 191.866 357.936 192.995L338.315 196.919C336.979 197.188 335.561 197.491 334.563 198.407C333.385 199.46 332.986 201.126 332.814 202.696C332.022 209.8 334.535 216.802 336.828 223.57C341.461 237.277 345.351 251.273 351.21 264.498C357.068 277.724 365.11 290.35 376.586 299.19C388.063 308.03 403.25 312.739 417.301 309.283C429.542 306.274 439.58 297.634 448.234 288.47C455.373 280.897 462.051 272.636 465.514 262.812C467.903 256.065 468.681 248.877 469.431 241.759C470.593 230.844 471.754 219.93 472.915 209.016C473.459 203.893 473.817 198.131 470.492 194.2C469.032 192.472 467.049 191.322 465.025 190.255C457.494 186.255 449.563 182.951 442.554 178.131C435.546 173.312 429.329 166.676 427.202 158.442C425.928 153.498 426.155 148.115 423.986 143.509C421.563 138.345 416.413 134.848 410.906 133.313C405.398 131.778 399.587 131.984 393.915 132.624C388.242 133.265 366.376 134.903 364.029 141.299C362.769 144.741 367.994 152.128 369.233 155.516C371.273 161.07 372.812 166.795 373.832 172.624Z" fill="#EFB7B9"/>
<path opacity="0.1" d="M373.832 172.624C374.583 176.885 374.982 181.574 372.807 185.291C369.908 190.276 363.588 191.866 357.936 192.995L338.315 196.919C336.979 197.188 335.561 197.491 334.563 198.407C333.385 199.46 332.986 201.126 332.814 202.696C332.022 209.8 334.535 216.802 336.828 223.57C341.461 237.277 345.351 251.273 351.21 264.498C357.068 277.724 365.11 290.35 376.586 299.19C388.063 308.03 403.25 312.739 417.301 309.283C429.542 306.274 439.58 297.634 448.234 288.47C455.373 280.897 462.051 272.636 465.514 262.812C467.903 256.065 468.681 248.877 469.431 241.759C470.593 230.844 471.754 219.93 472.915 209.016C473.459 203.893 473.817 198.131 470.492 194.2C469.032 192.472 467.049 191.322 465.025 190.255C457.494 186.255 449.563 182.951 442.554 178.131C435.546 173.312 429.329 166.676 427.202 158.442C425.928 153.498 426.155 148.115 423.986 143.509C421.563 138.345 416.413 134.848 410.906 133.313C405.398 131.778 399.587 131.984 393.915 132.624C388.242 133.265 366.376 134.903 364.029 141.299C362.769 144.741 367.994 152.128 369.233 155.516C371.273 161.07 372.812 166.795 373.832 172.624Z" fill="black"/>
<path d="M421.054 247.486L432.558 223.128C437.949 211.714 443.457 199.721 442.885 187.115C442.775 184.609 442.748 181.477 444.951 180.341C445.907 179.95 446.949 179.817 447.973 179.955C460.084 180.575 472.036 182.992 483.435 187.129C485.645 187.928 487.91 188.85 489.459 190.613C491.008 192.375 491.635 194.743 492.165 197.015C493.971 204.697 495.288 212.485 496.11 220.333C498.175 239.762 497.149 259.362 496.11 278.852L493.053 338.355C493.07 339.2 492.898 340.037 492.551 340.806C491.793 342.183 490.086 342.645 488.551 342.906C482.637 343.918 476.592 343.712 470.603 343.485C428.469 341.887 386.115 339.436 344.257 344.545C344.445 338.353 344.346 332.157 343.961 325.956C342.302 299.182 335.362 273.062 328.546 247.121C324.574 231.975 320.725 215.452 327.121 201.18C328.062 198.927 329.413 196.867 331.107 195.108C333.827 192.444 337.538 191.039 341.214 190.034C347.555 188.309 354.124 187.566 360.69 187.831L404.098 282.336C406.08 286.659 407.712 291.21 409.688 295.478C411.464 288.105 409.33 279.465 411.464 271.472C413.764 263.176 417.385 255.238 421.054 247.486Z" fill="white"/>
<path d="M416.516 312.511C424.282 313 431.827 309.021 437.17 303.396C442.512 297.772 446.037 290.639 449.018 283.431C453.304 273.156 456.71 262.537 459.201 251.686C461.266 242.461 462.732 232.912 461.307 223.563C459.338 210.654 452.034 198.923 450.788 185.925C450.574 183.653 450.712 180.995 452.536 179.625C453.665 178.779 455.152 178.662 456.557 178.579C469.541 177.808 483.806 177.952 493.864 186.193C496.928 188.699 499.413 191.832 502.408 194.413C509.541 200.61 519.62 203.763 524.198 211.99C525.795 214.854 526.559 218.096 527.675 221.181C530.304 228.478 534.855 234.895 539.378 241.208C534.993 259.714 529.953 278.233 525.568 296.739C523 307.596 520.411 318.494 516.377 328.89C513.733 335.705 510.408 342.659 511.22 349.957C511.544 352.827 512.501 355.574 513.334 358.342C516.254 368.056 517.623 378.17 517.389 388.311L320.945 388.792C330.356 375.299 333.117 358.748 332.16 342.328C331.698 334.459 329.922 326.542 325.963 319.733C319.726 309.062 308.752 302.109 297.936 296.154C290.363 292.023 282.233 315.265 274.047 312.601C275.369 303.252 275.975 267.163 275.424 257.751C275.245 254.667 274.969 251.5 275.919 248.554C276.567 246.537 277.758 244.733 278.563 242.771C281.792 234.915 278.715 224.871 283.933 218.186C287.541 213.539 293.868 212.217 299.01 209.353C304.291 206.406 308.373 201.78 312.972 197.828C321.996 190.166 333.022 185.243 344.751 183.639C348.173 189.036 350.253 195.174 350.817 201.539C351.168 205.539 350.913 209.594 351.471 213.573C352.235 218.964 354.466 224.024 356.676 229.008C365.88 249.793 375.119 270.639 386.782 290.157C390.079 295.665 393.666 301.173 398.444 305.462C403.222 309.751 410.1 312.814 416.516 312.511Z" fill="#136FC4"/>
<path opacity="0.1" d="M416.516 312.511C424.282 313 431.827 309.021 437.17 303.396C442.512 297.772 446.037 290.639 449.018 283.431C453.304 273.156 456.71 262.537 459.201 251.686C461.266 242.461 462.732 232.912 461.307 223.563C459.338 210.654 452.034 198.923 450.788 185.925C450.574 183.653 450.712 180.995 452.536 179.625C453.665 178.779 455.152 178.662 456.557 178.579C469.541 177.808 483.806 177.952 493.864 186.193C496.928 188.699 499.413 191.832 502.408 194.413C509.541 200.61 519.62 203.763 524.198 211.99C525.795 214.854 526.559 218.096 527.675 221.181C530.304 228.478 534.855 234.895 539.378 241.208C534.993 259.714 529.953 278.233 525.568 296.739C523 307.596 520.411 318.494 516.377 328.89C513.733 335.705 510.408 342.659 511.22 349.957C511.544 352.827 512.501 355.574 513.334 358.342C516.254 368.056 517.623 378.17 517.389 388.311L320.945 388.792C330.356 375.299 333.117 358.748 332.16 342.328C331.698 334.459 329.922 326.542 325.963 319.733C319.726 309.062 308.752 302.109 297.936 296.154C290.363 292.023 282.233 315.265 274.047 312.601C275.369 303.252 275.975 267.163 275.424 257.751C275.245 254.667 274.969 251.5 275.919 248.554C276.567 246.537 277.758 244.733 278.563 242.771C281.792 234.915 278.715 224.871 283.933 218.186C287.541 213.539 293.868 212.217 299.01 209.353C304.291 206.406 308.373 201.78 312.972 197.828C321.996 190.166 333.022 185.243 344.751 183.639C348.173 189.036 350.253 195.174 350.817 201.539C351.168 205.539 350.913 209.594 351.471 213.573C352.235 218.964 354.466 224.024 356.676 229.008C365.88 249.793 375.119 270.639 386.782 290.157C390.079 295.665 393.666 301.173 398.444 305.462C403.222 309.751 410.1 312.814 416.516 312.511Z" fill="black"/>
<path d="M406.129 171.06C438.722 171.06 465.143 144.639 465.143 112.046C465.143 79.453 438.722 53.0312 406.129 53.0312C373.536 53.0312 347.114 79.453 347.114 112.046C347.114 144.639 373.536 171.06 406.129 171.06Z" fill="#EFB7B9"/>
<path d="M375.162 190.69C376.78 175.42 370.432 160.481 363.245 146.911C359.803 140.426 356.112 133.961 354.384 126.836C352.656 119.71 353.152 111.642 357.572 105.783C361.331 100.798 367.293 98.1066 372.807 95.1807C388.374 86.9192 402.604 74.7748 409.447 58.5341C405.578 60.6408 406.583 66.9264 409.998 69.7009C413.413 72.4753 418.067 73.0123 422.266 74.3342C437.578 79.1534 446.762 94.4234 454.128 108.688C455.333 111.015 456.558 113.473 456.545 116.096C456.531 118.719 455.333 121.046 454.08 123.277C450.445 129.748 445.997 135.965 444.345 143.201C442.452 151.462 444.448 160.15 447.044 168.253C449.798 176.873 453.453 185.561 460.063 191.744C466.672 197.926 476.923 200.997 485.054 197.003C476.937 183.048 468.531 167.455 471.697 151.634C473.226 144.061 477.336 137.177 479.085 129.645C482.417 115.277 476.868 100.496 471.422 86.7815L455.147 45.8527C452.662 39.5946 449.832 32.9166 444.132 29.371C440.276 26.9821 435.609 26.3625 431.092 25.9287C416.552 24.6344 401.489 25.0613 387.954 30.4726C363.293 40.3244 347.83 64.6131 335.562 88.1721C331.886 95.2288 328.257 102.726 328.409 110.685C328.491 115.05 329.71 119.297 330.701 123.552C334.736 140.874 334.956 158.822 335.163 176.604C335.321 190.25 334.612 203.11 328.643 215.537C336.822 217.161 348.684 221.547 356.78 218.339C367.334 214.167 373.833 201.313 375.162 190.69Z" fill="#454B69"/>
<g opacity="0.1">
<path opacity="0.1" d="M335.128 176.315C335.155 174.373 335.155 172.414 335.128 170.435C334.921 152.653 334.701 134.705 330.667 117.383C329.765 114.012 329.062 110.592 328.56 107.139C328.418 108.324 328.356 109.518 328.374 110.712C328.457 115.077 329.675 119.324 330.667 123.579C334.68 140.797 334.928 158.635 335.128 176.315Z" fill="black"/>
<path opacity="0.1" d="M479.085 129.645C479.988 125.623 480.29 121.488 479.98 117.377C479.844 119.422 479.545 121.452 479.085 123.449C477.336 131.022 473.226 137.845 471.697 145.438C471.039 148.788 470.853 152.213 471.147 155.614C471.256 154.278 471.44 152.95 471.697 151.635C473.226 144.041 477.336 137.191 479.085 129.645Z" fill="black"/>
<path opacity="0.1" d="M456.007 112.935C456.343 111.957 456.524 110.933 456.544 109.899C456.544 107.276 455.332 104.818 454.127 102.491C446.761 88.2262 437.604 72.97 422.266 68.1371C418.066 66.8152 413.419 66.2782 409.997 63.5037C409.117 62.7454 408.397 61.819 407.879 60.7786C407.361 59.7383 407.056 58.605 406.982 57.4453C399.519 71.1456 386.7 81.6239 372.807 88.9835C367.299 91.9095 361.33 94.6014 357.571 99.5858C354.04 104.267 353.014 110.36 353.627 116.253C353.974 112.471 355.337 108.853 357.571 105.782C361.33 100.797 367.292 98.1056 372.807 95.1797C386.7 87.8201 399.519 77.3417 406.982 63.6414C407.056 64.8011 407.361 65.9344 407.879 66.9747C408.397 68.0151 409.117 68.9416 409.997 69.6999C413.44 72.4537 418.066 73.0113 422.266 74.3332C437.577 79.1524 446.761 94.4224 454.127 108.687C454.874 110.047 455.503 111.468 456.007 112.935Z" fill="black"/>
<path opacity="0.1" d="M460.062 185.546C453.453 179.35 449.811 170.675 447.044 162.056C445.383 157.214 444.274 152.2 443.739 147.109C443.099 154.18 444.854 161.416 447.044 168.252C449.797 176.871 453.453 185.56 460.062 191.742C466.671 197.924 476.923 200.995 485.053 197.002C484.076 195.329 483.105 193.628 482.141 191.914C474.589 194.041 465.914 191.012 460.062 185.546Z" fill="black"/>
<path opacity="0.1" d="M375.162 184.493C373.833 195.116 367.334 207.97 356.752 212.169C349.407 215.081 338.949 211.735 330.97 209.884C330.283 211.816 329.497 213.712 328.615 215.563C336.794 217.188 348.656 221.574 356.752 218.365C367.334 214.166 373.833 201.312 375.162 190.689C375.436 188.032 375.486 185.356 375.313 182.689C375.272 183.288 375.21 183.894 375.162 184.493Z" fill="black"/>
</g>
<path d="M458.582 355.187C447.945 353.501 437.15 350.244 426.603 352.434C420.489 353.7 414.899 356.743 409.818 360.42C412.613 362.657 415.877 364.654 417.653 367.765C418.756 369.918 419.584 372.201 420.118 374.561C421.233 378.691 422.355 382.905 422.527 387.201C422.699 391.497 421.839 395.972 419.278 399.434C432.689 400.756 445.687 397.452 458.768 394.223C460.264 393.96 461.687 393.386 462.947 392.536C465.012 390.911 465.618 388.02 465.632 385.383C465.632 380.674 464.31 376.082 462.967 371.566C461.37 366.148 460.186 360.571 458.582 355.187Z" fill="white"/>
<path d="M530.401 239.068C535.682 239.756 539.778 244.018 542.793 248.396C551.255 260.582 554.903 275.356 558.965 289.628C564.014 307.377 569.951 324.845 576.776 342.033C578.245 346.003 580.032 349.848 582.118 353.531C583.819 356.374 585.884 359.107 586.634 362.336C588.452 370.143 582.015 377.482 575.302 381.833C571.725 384.245 567.817 386.128 563.702 387.423C559.695 388.621 555.516 389.076 551.365 389.53L513.148 393.661C495.558 395.575 477.81 397.489 460.213 395.644C459.105 391.788 461.28 389.062 461.122 385.048C461.012 382.177 459.745 379.506 458.616 376.863C456.534 372.154 455.158 367.164 454.533 362.054C454.334 360.174 454.265 358.247 453.549 356.498C452.833 354.749 451.297 353.18 449.418 353.056C459.745 352.03 467.586 350.082 477.913 349.049C481.748 348.663 485.734 348.23 489.004 346.192C493.059 343.665 495.331 339.108 497.135 334.688C501.603 323.741 504.481 311.679 502.133 300.086C500.205 290.578 494.829 281.725 494.856 272.024C494.856 266.248 496.825 260.651 499.152 255.364C501.617 249.773 504.832 244.059 510.243 241.223C515.654 238.386 524.295 238.242 530.401 239.068Z" fill="#136FC4"/>
<path opacity="0.08" d="M530.401 239.068C535.682 239.756 539.778 244.018 542.793 248.396C551.255 260.582 554.903 275.356 558.965 289.628C564.014 307.377 569.951 324.845 576.776 342.033C578.245 346.003 580.032 349.848 582.118 353.531C583.819 356.374 585.884 359.107 586.634 362.336C588.452 370.143 582.015 377.482 575.302 381.833C571.725 384.245 567.817 386.128 563.702 387.423C559.695 388.621 555.516 389.076 551.365 389.53L513.148 393.661C495.558 395.575 477.81 397.489 460.213 395.644C459.105 391.788 461.28 389.062 461.122 385.048C461.012 382.177 459.745 379.506 458.616 376.863C456.534 372.154 455.158 367.164 454.533 362.054C454.334 360.174 454.265 358.247 453.549 356.498C452.833 354.749 451.297 353.18 449.418 353.056C459.745 352.03 467.586 350.082 477.913 349.049C481.748 348.663 485.734 348.23 489.004 346.192C493.059 343.665 495.331 339.108 497.135 334.688C501.603 323.741 504.481 311.679 502.133 300.086C500.205 290.578 494.829 281.725 494.856 272.024C494.856 266.248 496.825 260.651 499.152 255.364C501.617 249.773 504.832 244.059 510.243 241.223C515.654 238.386 524.295 238.242 530.401 239.068Z" fill="black"/>
<path d="M291.087 230.124C293.586 224.189 296.127 218.062 296.195 211.625C296.271 204.665 293.442 198.055 291.28 191.446C288.607 183.36 286.827 175.005 285.972 166.531C285.795 165.719 285.917 164.871 286.316 164.142C286.888 163.336 287.989 163.171 288.96 162.958C293.724 161.87 297.325 158.022 300.299 154.146C304.913 148.159 308.809 141.653 311.906 134.759C314.185 129.685 317.269 123.495 322.832 123.447C320.592 133.966 317.817 144.364 314.515 154.6C320.333 153.113 325.861 150.951 331.679 149.464C332.817 149.104 334.01 148.946 335.203 148.996C338.687 149.361 340.821 154.077 338.797 156.934C341.641 160.266 346.37 161.161 350.088 163.447C353.806 165.732 356.477 171.391 353.172 174.262C352.525 174.82 351.706 175.212 351.238 175.928C349.64 178.393 353.551 181.223 353.227 184.142C352.966 186.531 349.902 187.646 347.582 187.013C345.262 186.379 343.451 184.644 341.386 183.371C339.32 182.097 336.622 181.305 334.618 182.627C334.081 189.105 333.503 195.708 330.701 201.608C329.675 203.763 328.36 205.78 327.534 208.017C326.744 210.457 326.254 212.984 326.075 215.542L323.575 238.392C311.651 240.781 300.96 237.208 291.087 230.124Z" fill="#EFB7B9"/>
<path d="M288.174 250.604L285.978 235.74C285.768 234.53 285.651 233.305 285.627 232.077C285.627 228.635 287.142 225.351 288.608 222.219C300.759 227.892 313.895 229.909 327.299 229.916C329.069 229.916 331.086 229.75 332.187 228.367C334.466 230.99 334.535 235.21 333.564 238.542C332.594 241.874 330.728 244.876 329.489 248.125C328.862 249.771 328.353 251.568 327.155 252.834C325.296 254.838 322.28 255.182 319.54 255.168C316.658 255.15 313.782 254.876 310.948 254.349C303.609 252.986 295.513 249.289 288.174 250.604Z" fill="white"/>
<path d="M333.497 249.999C324.065 248.925 314.695 247.41 305.387 245.455C300.822 244.498 296.217 243.431 291.563 243.617C288.533 243.741 285.277 244.347 282.613 242.846C285.208 251.679 285.367 260.987 282.262 269.654C280.423 274.818 277.621 279.63 276.272 284.945C273.463 296.063 277.318 308.187 273.807 319.106C273.436 320.533 272.706 321.841 271.687 322.906C270.613 323.891 269.146 324.4 268.155 325.467C266.696 327.037 266.606 329.399 266.599 331.54L266.537 350.507C266.496 362.582 266.654 375.387 273.029 385.618C280.299 397.322 295.604 403.387 308.926 399.828C312.468 398.922 315.786 397.298 318.674 395.057C323.301 391.38 326.247 386.065 329.132 380.888C332.574 374.692 336.016 368.358 337.125 361.384C337.91 356.448 337.469 351.409 336.904 346.445C333.793 318.906 327.039 291.602 328.491 263.961C328.709 258.908 330.454 254.039 333.497 249.999Z" fill="#136FC4"/>
<path d="M372.917 364.284C368.132 364.559 363.313 364.834 358.549 364.284C355.106 363.871 351.747 363.024 348.332 362.445C339.006 360.939 329.465 361.469 320.364 363.998C311.262 366.527 302.815 370.995 295.603 377.096C292.959 379.354 290.288 382.817 291.748 385.977C293.317 389.378 298.116 389.282 301.813 388.648C297.823 390.554 294.298 393.31 291.486 396.724C290.453 397.984 289.476 399.478 289.676 401.109C290.095 404.517 294.722 405.137 298.144 404.841C297.028 406.039 297.779 408.159 299.197 408.971C300.615 409.784 302.378 409.619 303.982 409.323C307.528 408.673 310.955 407.487 314.143 405.805C313.496 407.491 314.618 409.467 316.209 410.307C317.799 411.147 319.734 411.085 321.517 410.796C329.93 409.419 336.952 403.567 345.158 401.268C358.28 397.598 372.008 403.45 385.646 403.863C389.915 403.994 394.293 403.56 398.183 401.798C402.954 399.629 406.803 395.56 411.842 394.114C417.439 392.517 423.863 394.355 428.985 391.595C432.709 389.591 429.35 374.149 428.4 371.175C426.658 365.736 424.909 362.129 419.105 361.578C404.421 360.139 387.712 363.43 372.917 364.284Z" fill="#EFB7B9"/>
<path d="M409.55 360.07C409.55 360.07 431.78 378.885 418.954 399.415L443.739 390.858V372.896C443.739 372.042 434.327 359.216 434.327 359.216L423.209 357.502L409.55 360.07Z" fill="white"/>
<path d="M176.79 358.906H185.127C189.692 358.906 194.069 360.72 197.297 363.947C200.525 367.175 202.338 371.553 202.338 376.118V401.666H159.578V376.118C159.578 373.857 160.023 371.619 160.888 369.531C161.753 367.443 163.021 365.546 164.619 363.947C166.217 362.349 168.115 361.081 170.203 360.216C172.291 359.351 174.529 358.906 176.79 358.906Z" fill="#3F3D56"/>
<path opacity="0.1" d="M176.79 358.906H185.127C189.692 358.906 194.069 360.72 197.297 363.947C200.525 367.175 202.338 371.553 202.338 376.118V401.666H159.578V376.118C159.578 373.857 160.023 371.619 160.888 369.531C161.753 367.443 163.021 365.546 164.619 363.947C166.217 362.349 168.115 361.081 170.203 360.216C172.291 359.351 174.529 358.906 176.79 358.906Z" fill="black"/>
<path d="M179.247 368.31C181.137 368.31 182.668 366.778 182.668 364.888C182.668 362.999 181.137 361.467 179.247 361.467C177.357 361.467 175.825 362.999 175.825 364.888C175.825 366.778 177.357 368.31 179.247 368.31Z" fill="#3F3D56"/>
<path d="M179.247 364.035C181.137 364.035 182.668 362.503 182.668 360.613C182.668 358.723 181.137 357.191 179.247 357.191C177.357 357.191 175.825 358.723 175.825 360.613C175.825 362.503 177.357 364.035 179.247 364.035Z" fill="#3F3D56"/>
<path d="M179.247 359.759C181.137 359.759 182.668 358.227 182.668 356.338C182.668 354.448 181.137 352.916 179.247 352.916C177.357 352.916 175.825 354.448 175.825 356.338C175.825 358.227 177.357 359.759 179.247 359.759Z" fill="#3F3D56"/>
<path d="M179.247 355.486C181.137 355.486 182.668 353.954 182.668 352.064C182.668 350.174 181.137 348.643 179.247 348.643C177.357 348.643 175.825 350.174 175.825 352.064C175.825 353.954 177.357 355.486 179.247 355.486Z" fill="#3F3D56"/>
<path d="M179.247 351.209C181.137 351.209 182.668 349.677 182.668 347.787C182.668 345.897 181.137 344.365 179.247 344.365C177.357 344.365 175.825 345.897 175.825 347.787C175.825 349.677 177.357 351.209 179.247 351.209Z" fill="#3F3D56"/>
<path d="M179.247 346.935C181.137 346.935 182.668 345.403 182.668 343.513C182.668 341.624 181.137 340.092 179.247 340.092C177.357 340.092 175.825 341.624 175.825 343.513C175.825 345.403 177.357 346.935 179.247 346.935Z" fill="#3F3D56"/>
<path d="M179.247 342.652C181.137 342.652 182.668 341.12 182.668 339.23C182.668 337.341 181.137 335.809 179.247 335.809C177.357 335.809 175.825 337.341 175.825 339.23C175.825 341.12 177.357 342.652 179.247 342.652Z" fill="#3F3D56"/>
<path d="M184.383 344.367C186.272 344.367 187.804 342.835 187.804 340.945C187.804 339.055 186.272 337.523 184.383 337.523C182.493 337.523 180.961 339.055 180.961 340.945C180.961 342.835 182.493 344.367 184.383 344.367Z" fill="#3F3D56"/>
<path d="M187.804 342.652C189.694 342.652 191.226 341.12 191.226 339.23C191.226 337.341 189.694 335.809 187.804 335.809C185.915 335.809 184.383 337.341 184.383 339.23C184.383 341.12 185.915 342.652 187.804 342.652Z" fill="#3F3D56"/>
<path d="M191.226 340.945C193.116 340.945 194.648 339.413 194.648 337.523C194.648 335.633 193.116 334.102 191.226 334.102C189.337 334.102 187.805 335.633 187.805 337.523C187.805 339.413 189.337 340.945 191.226 340.945Z" fill="#3F3D56"/>
<path d="M179.247 338.376C181.137 338.376 182.668 336.845 182.668 334.955C182.668 333.065 181.137 331.533 179.247 331.533C177.357 331.533 175.825 333.065 175.825 334.955C175.825 336.845 177.357 338.376 179.247 338.376Z" fill="#3F3D56"/>
<path d="M179.247 334.101C181.137 334.101 182.668 332.569 182.668 330.679C182.668 328.79 181.137 327.258 179.247 327.258C177.357 327.258 175.825 328.79 175.825 330.679C175.825 332.569 177.357 334.101 179.247 334.101Z" fill="#3F3D56"/>
<path d="M179.247 329.826C181.137 329.826 182.668 328.294 182.668 326.404C182.668 324.514 181.137 322.982 179.247 322.982C177.357 322.982 175.825 324.514 175.825 326.404C175.825 328.294 177.357 329.826 179.247 329.826Z" fill="#3F3D56"/>
<path d="M179.247 325.55C181.137 325.55 182.668 324.018 182.668 322.129C182.668 320.239 181.137 318.707 179.247 318.707C177.357 318.707 175.825 320.239 175.825 322.129C175.825 324.018 177.357 325.55 179.247 325.55Z" fill="#3F3D56"/>
<path d="M193.457 311.093C192.603 311.217 191.75 311.307 190.896 311.362C191.69 310.669 192.426 309.914 193.099 309.104C192.625 307.666 191.928 306.311 191.034 305.09C190.185 305.566 189.248 305.862 188.28 305.957C187.433 306.081 186.579 306.171 185.726 306.233C186.848 305.317 187.894 303.94 188.996 302.79C186.528 300.554 183.366 299.233 180.04 299.049C176.714 298.866 173.426 299.831 170.727 301.783C168.028 303.735 166.082 306.555 165.215 309.771C164.348 312.987 164.612 316.404 165.963 319.448C167.315 322.492 169.672 324.98 172.639 326.494C175.606 328.007 179.003 328.455 182.261 327.763C185.519 327.07 188.44 325.279 190.535 322.689C192.63 320.099 193.771 316.868 193.767 313.537C193.767 312.699 193.693 311.863 193.546 311.038L193.457 311.093Z" fill="#136FC4"/>
<path d="M204.865 328.091C203.992 328.627 203.007 328.955 201.987 329.048C201.14 329.172 200.287 329.268 199.433 329.323C200.34 328.509 201.187 327.63 201.966 326.693C199.903 326.155 197.714 326.406 195.826 327.397C193.938 328.387 192.488 330.046 191.758 332.05C191.029 334.053 191.073 336.256 191.881 338.229C192.69 340.201 194.205 341.801 196.131 342.716C198.056 343.631 200.254 343.795 202.294 343.175C204.334 342.556 206.069 341.198 207.161 339.367C208.253 337.536 208.623 335.363 208.198 333.274C207.774 331.185 206.585 329.329 204.865 328.07V328.091Z" fill="#136FC4"/>
<path d="M174.118 344.367C176.008 344.367 177.54 342.835 177.54 340.945C177.54 339.055 176.008 337.523 174.118 337.523C172.228 337.523 170.696 339.055 170.696 340.945C170.696 342.835 172.228 344.367 174.118 344.367Z" fill="#3F3D56"/>
<path d="M170.696 342.652C172.586 342.652 174.118 341.12 174.118 339.23C174.118 337.341 172.586 335.809 170.696 335.809C168.806 335.809 167.274 337.341 167.274 339.23C167.274 341.12 168.806 342.652 170.696 342.652Z" fill="#3F3D56"/>
<path d="M167.275 340.945C169.165 340.945 170.697 339.413 170.697 337.523C170.697 335.633 169.165 334.102 167.275 334.102C165.385 334.102 163.854 335.633 163.854 337.523C163.854 339.413 165.385 340.945 167.275 340.945Z" fill="#3F3D56"/>
<path d="M153.636 328.091C154.509 328.627 155.494 328.955 156.514 329.048C157.361 329.172 158.214 329.268 159.068 329.323C158.159 328.511 157.312 327.632 156.535 326.693C158.598 326.155 160.787 326.406 162.675 327.397C164.563 328.387 166.013 330.046 166.743 332.05C167.472 334.053 167.428 336.256 166.62 338.229C165.811 340.201 164.296 341.801 162.37 342.716C160.445 343.631 158.247 343.795 156.207 343.175C154.167 342.556 152.431 341.198 151.34 339.367C150.248 337.536 149.878 335.363 150.303 333.274C150.727 331.185 151.916 329.329 153.636 328.07V328.091Z" fill="#136FC4"/>
<path d="M176.789 361.439H185.126C189.691 361.439 194.068 363.253 197.296 366.481C200.524 369.708 202.337 374.086 202.337 378.651V401.28C202.337 402.055 202.03 402.797 201.482 403.345C200.935 403.892 200.193 404.2 199.418 404.2H162.476C161.702 404.2 160.959 403.892 160.412 403.345C159.864 402.797 159.557 402.055 159.557 401.28V378.651C159.557 376.389 160.003 374.149 160.869 372.06C161.735 369.97 163.005 368.072 164.605 366.473C166.205 364.875 168.105 363.607 170.196 362.744C172.286 361.88 174.527 361.437 176.789 361.439Z" fill="#3F3D56"/>
<g opacity="0.1">
<path opacity="0.1" d="M193.69 312.029C193.344 312.399 192.976 312.749 192.589 313.076C192.981 313.076 193.367 313.014 193.759 312.972C193.745 312.656 193.725 312.339 193.69 312.029Z" fill="black"/>
<path opacity="0.1" d="M187.453 307.94C188.314 307.885 189.16 307.795 190.014 307.672C190.78 307.575 191.529 307.371 192.238 307.066C191.89 306.377 191.489 305.717 191.04 305.09C190.612 305.351 190.148 305.548 189.663 305.675C188.988 306.488 188.249 307.245 187.453 307.94Z" fill="black"/>
<path opacity="0.1" d="M166.42 315.285C166.415 312.675 167.114 310.112 168.443 307.866C169.773 305.62 171.683 303.773 173.974 302.522C176.264 301.27 178.85 300.659 181.458 300.754C184.067 300.848 186.601 301.644 188.795 303.058L189.016 302.824C187.584 301.55 185.914 300.572 184.102 299.947C182.291 299.321 180.373 299.06 178.461 299.178C176.548 299.297 174.677 299.793 172.957 300.638C171.236 301.482 169.7 302.659 168.437 304.1C167.173 305.541 166.207 307.218 165.595 309.034C164.982 310.85 164.735 312.769 164.868 314.681C165 316.593 165.51 318.46 166.367 320.174C167.224 321.889 168.412 323.416 169.863 324.669C167.636 322.05 166.416 318.723 166.42 315.285Z" fill="black"/>
</g>
<g opacity="0.1">
<path opacity="0.1" d="M199.433 331.031C200.286 330.976 201.14 330.886 201.987 330.762C203.008 330.667 203.993 330.337 204.865 329.798C205.831 330.51 206.637 331.418 207.23 332.461C207.823 333.505 208.19 334.662 208.307 335.857C208.34 335.557 208.356 335.256 208.355 334.955C208.362 333.618 208.053 332.298 207.455 331.102C206.857 329.906 205.986 328.867 204.913 328.07C204.04 328.607 203.055 328.935 202.035 329.027L201.347 329.117C200.759 329.803 200.119 330.443 199.433 331.031Z" fill="black"/>
<path opacity="0.1" d="M199.777 328.112C200.063 328.115 200.348 328.136 200.631 328.174C201.078 327.699 201.519 327.189 201.966 326.693C200.701 326.355 199.374 326.313 198.09 326.57C196.805 326.827 195.597 327.376 194.558 328.175C193.52 328.973 192.679 330 192.102 331.176C191.524 332.352 191.224 333.645 191.227 334.955C191.227 335.244 191.227 335.526 191.268 335.809C191.48 333.699 192.467 331.743 194.04 330.321C195.612 328.899 197.657 328.111 199.777 328.112Z" fill="black"/>
</g>
<g opacity="0.1">
<path opacity="0.1" d="M159.069 331.031C158.215 330.976 157.362 330.886 156.515 330.762C155.494 330.667 154.509 330.337 153.637 329.798C152.67 330.51 151.864 331.418 151.271 332.461C150.678 333.505 150.312 334.662 150.195 335.857C150.161 335.557 150.145 335.256 150.147 334.955C150.14 333.618 150.448 332.298 151.046 331.102C151.644 329.906 152.515 328.867 153.589 328.07C154.461 328.607 155.446 328.935 156.467 329.027L157.155 329.117C157.739 329.807 158.379 330.447 159.069 331.031Z" fill="black"/>
<path opacity="0.1" d="M158.724 328.112C158.437 328.115 158.149 328.136 157.864 328.174C157.423 327.699 156.983 327.189 156.535 326.693C157.801 326.355 159.127 326.313 160.412 326.57C161.697 326.827 162.905 327.376 163.943 328.175C164.982 328.973 165.822 330 166.4 331.176C166.978 332.352 167.277 333.645 167.275 334.955C167.275 335.244 167.275 335.526 167.234 335.809C167.022 333.699 166.034 331.743 164.462 330.321C162.889 328.899 160.845 328.111 158.724 328.112Z" fill="black"/>
</g>
<path d="M135.524 412.477H68.2614C67.5036 412.477 66.7769 412.176 66.2411 411.64C65.7053 411.104 65.4043 410.378 65.4043 409.62V377.786C65.4042 377.303 65.5261 376.829 65.7586 376.407C65.9912 375.984 66.3268 375.628 66.7343 375.37C67.1418 375.112 67.6079 374.962 68.0892 374.933C68.5705 374.904 69.0513 374.997 69.4868 375.204C88.8118 384.374 109.631 387.52 134.202 375.348C134.637 375.134 135.12 375.033 135.605 375.056C136.091 375.08 136.562 375.226 136.975 375.481C137.388 375.737 137.729 376.093 137.967 376.516C138.204 376.94 138.33 377.417 138.333 377.903V409.572C138.339 409.947 138.271 410.32 138.134 410.669C137.996 411.018 137.791 411.336 137.53 411.606C137.269 411.876 136.958 412.092 136.613 412.241C136.269 412.391 135.899 412.471 135.524 412.477Z" fill="#136FC4"/>
<path opacity="0.1" d="M135.524 412.477H68.2614C67.5036 412.477 66.7769 412.176 66.2411 411.64C65.7053 411.104 65.4043 410.378 65.4043 409.62V377.786C65.4042 377.303 65.5261 376.829 65.7586 376.407C65.9912 375.984 66.3268 375.628 66.7343 375.37C67.1418 375.112 67.6079 374.962 68.0892 374.933C68.5705 374.904 69.0513 374.997 69.4868 375.204C88.8118 384.374 109.631 387.52 134.202 375.348C134.637 375.134 135.12 375.033 135.605 375.056C136.091 375.08 136.562 375.226 136.975 375.481C137.388 375.737 137.729 376.093 137.967 376.516C138.204 376.94 138.33 377.417 138.333 377.903V409.572C138.339 409.947 138.271 410.32 138.134 410.669C137.996 411.018 137.791 411.336 137.53 411.606C137.269 411.876 136.958 412.092 136.613 412.241C136.269 412.391 135.899 412.471 135.524 412.477Z" fill="black"/>
<path d="M101.424 388.277C103.621 388.277 105.403 385.943 105.403 383.065C105.403 380.187 103.621 377.854 101.424 377.854C99.2259 377.854 97.4443 380.187 97.4443 383.065C97.4443 385.943 99.2259 388.277 101.424 388.277Z" fill="#3F3D56"/>
<path d="M101.424 381.908C103.621 381.908 105.403 379.574 105.403 376.696C105.403 373.818 103.621 371.484 101.424 371.484C99.2259 371.484 97.4443 373.818 97.4443 376.696C97.4443 379.574 99.2259 381.908 101.424 381.908Z" fill="#3F3D56"/>
<path d="M101.424 375.533C103.621 375.533 105.403 373.199 105.403 370.321C105.403 367.443 103.621 365.109 101.424 365.109C99.2259 365.109 97.4443 367.443 97.4443 370.321C97.4443 373.199 99.2259 375.533 101.424 375.533Z" fill="#3F3D56"/>
<path d="M101.424 369.165C103.621 369.165 105.403 366.832 105.403 363.954C105.403 361.076 103.621 358.742 101.424 358.742C99.2259 358.742 97.4443 361.076 97.4443 363.954C97.4443 366.832 99.2259 369.165 101.424 369.165Z" fill="#3F3D56"/>
<path d="M101.424 362.79C103.621 362.79 105.403 360.457 105.403 357.579C105.403 354.701 103.621 352.367 101.424 352.367C99.2259 352.367 97.4443 354.701 97.4443 357.579C97.4443 360.457 99.2259 362.79 101.424 362.79Z" fill="#3F3D56"/>
<path d="M101.424 356.415C103.621 356.415 105.403 354.082 105.403 351.204C105.403 348.326 103.621 345.992 101.424 345.992C99.2259 345.992 97.4443 348.326 97.4443 351.204C97.4443 354.082 99.2259 356.415 101.424 356.415Z" fill="#3F3D56"/>
<path d="M101.424 350.046C103.621 350.046 105.403 347.713 105.403 344.835C105.403 341.956 103.621 339.623 101.424 339.623C99.2259 339.623 97.4443 341.956 97.4443 344.835C97.4443 347.713 99.2259 350.046 101.424 350.046Z" fill="#3F3D56"/>
<path d="M116.35 301.229C116.89 300.534 117.385 299.805 117.83 299.046L107.366 297.325L118.684 297.408C119.776 295.042 120.371 292.477 120.434 289.872C120.497 287.268 120.025 284.677 119.049 282.262L103.868 290.138L117.871 279.811C116.56 277.543 114.796 275.57 112.689 274.014C110.582 272.458 108.177 271.353 105.624 270.767C103.071 270.181 100.425 270.127 97.8498 270.608C95.2751 271.09 92.8271 272.096 90.6584 273.565C88.4896 275.034 86.6466 276.934 85.2442 279.146C83.8417 281.358 82.9098 283.836 82.5066 286.424C82.1035 289.012 82.2376 291.655 82.9006 294.19C83.5637 296.724 84.7415 299.094 86.3607 301.153C85.51 302.228 84.7804 303.394 84.1852 304.63L97.7615 311.762L83.3039 306.874C82.2906 309.879 82.0413 313.088 82.5786 316.213C83.1158 319.338 84.4227 322.28 86.3813 324.774C84.168 327.588 82.7912 330.968 82.4082 334.527C82.0253 338.087 82.6517 341.682 84.2159 344.903C85.7801 348.123 88.2188 350.838 91.2534 352.738C94.288 354.638 97.7958 355.645 101.376 355.645C104.956 355.645 108.464 354.638 111.498 352.738C114.533 350.838 116.972 348.123 118.536 344.903C120.1 341.682 120.727 338.087 120.344 334.527C119.961 330.968 118.584 327.588 116.371 324.774C119.015 321.412 120.452 317.258 120.452 312.981C120.452 308.703 119.015 304.55 116.371 301.187L116.35 301.229Z" fill="#136FC4"/>
<path opacity="0.1" d="M82.2647 313.021C82.2584 317.3 83.6969 321.455 86.3472 324.815C84.1339 327.629 82.757 331.009 82.3741 334.568C81.9912 338.128 82.6176 341.723 84.1818 344.943C85.7459 348.164 88.1847 350.879 91.2193 352.779C94.2538 354.678 97.7617 355.686 101.342 355.686C104.922 355.686 108.43 354.678 111.464 352.779C114.499 350.879 116.938 348.164 118.502 344.943C120.066 341.723 120.692 338.128 120.31 334.568C119.927 331.009 118.55 327.629 116.336 324.815C118.891 321.572 82.2647 310.88 82.2647 313.021Z" fill="black"/>
<path d="M135.524 414.164H68.2614C67.5036 414.164 66.7769 413.863 66.2411 413.327C65.7053 412.791 65.4043 412.064 65.4043 411.307V377.786C65.4042 377.303 65.5261 376.829 65.7586 376.407C65.9912 375.984 66.3268 375.628 66.7343 375.37C67.1418 375.112 67.6079 374.962 68.0892 374.933C68.5705 374.904 69.0513 374.997 69.4868 375.204C88.8118 384.374 104.137 395.066 134.202 375.348C135.985 374.178 138.333 375.775 138.333 377.903V411.293C138.336 412.045 138.044 412.768 137.518 413.305C136.992 413.843 136.275 414.151 135.524 414.164Z" fill="#136FC4"/>
<path d="M634.64 404.682L535.406 417.811L530.442 418.465L481.927 392.551V386.486L633.539 369.949L634.64 404.682Z" fill="#9C9CA1"/>
<path d="M510.044 395.305L617.547 382.631L616.445 402.479L532.708 408.62L510.044 395.305Z" fill="#939498"/>
<path opacity="0.4" d="M535.407 411.291V417.804L530.443 418.493L481.921 392.552V386.486L528.233 411.271C528.233 411.271 534.306 411.842 535.407 411.291Z" fill="black"/>
<path d="M554.457 307.92L532.179 411.223C531.954 412.257 531.982 413.33 532.259 414.351C532.536 415.373 533.056 416.312 533.773 417.091C534.49 417.869 535.383 418.464 536.378 418.824C537.374 419.184 538.441 419.3 539.49 419.161L680.438 400.504C681.666 400.342 682.823 399.837 683.777 399.048C684.732 398.259 685.445 397.218 685.835 396.042L716.244 304.34C716.58 303.322 716.664 302.238 716.488 301.181C716.312 300.124 715.881 299.126 715.234 298.273C714.586 297.419 713.741 296.736 712.77 296.281C711.8 295.827 710.733 295.616 709.663 295.665L560.598 302.743C559.148 302.811 557.761 303.356 556.651 304.291C555.541 305.227 554.77 306.502 554.457 307.92Z" fill="#3F3D56"/>
<path d="M631.905 346.029C632.251 342.74 630.817 339.893 628.704 339.67C626.59 339.448 624.596 341.935 624.25 345.225C623.904 348.515 625.338 351.362 627.451 351.584C629.565 351.806 631.559 349.319 631.905 346.029Z" fill="white"/>
</g>
<defs>
<clipPath id="clip0">
<rect width="791.726" height="432" fill="white"/>
</clipPath>
</defs>
</svg>
