<svg width="300" height="300" viewBox="0 0 653 609" fill="none" xmlns="http://www.w3.org/2000/svg">
<path d="M506.497 17.8633L552.759 62.5122L599.254 314.206H163.121L506.497 17.8633Z" fill="#FEF3CE"/>
<path d="M553.156 62.1612L506.754 17.372L514.515 9.30716C525.946 -2.56804 546.541 -1.21221 558.416 10.1955C570.291 21.6265 572.371 42.2211 560.94 54.0963L553.156 62.1612Z" fill="white" stroke="#FFCF2D" stroke-width="1.40258" stroke-miterlimit="10" stroke-linecap="round"/>
<path d="M560.918 54.0968L514.492 9.30762" stroke="#FFCF2D" stroke-width="1.40258" stroke-miterlimit="10" stroke-linecap="round"/>
<path d="M560.964 12.2295L566.153 8.25551C573.12 2.92569 583.125 4.32828 588.338 11.4113L715.879 166.677L650.589 312.289" stroke="#3FB1B5" stroke-width="1.40258" stroke-miterlimit="10" stroke-linecap="round"/>
<path d="M713.799 174.601C717.749 174.601 720.952 171.399 720.952 167.448C720.952 163.498 717.749 160.295 713.799 160.295C709.848 160.295 706.646 163.498 706.646 167.448C706.646 171.399 709.848 174.601 713.799 174.601Z" fill="white" stroke="#FFCF2D" stroke-width="1.40258" stroke-miterlimit="10" stroke-linecap="round"/>
<path d="M632.449 296.019H667.303C677.331 296.019 685.443 304.154 685.443 314.159V314.673H614.285V314.159C614.309 304.154 622.42 296.019 632.449 296.019Z" fill="white" stroke="#FFCF2D" stroke-width="1.40258" stroke-miterlimit="10" stroke-linecap="round"/>
<path d="M463.601 261.585H242.951C234.652 261.585 227.943 254.875 227.943 246.577V92.2459C227.943 83.9473 234.652 77.2383 242.951 77.2383H463.601C471.899 77.2383 478.608 83.9473 478.608 92.2459V246.553C478.632 254.852 471.899 261.585 463.601 261.585Z" fill="white" stroke="#3FB1B5" stroke-width="1.40258" stroke-miterlimit="10" stroke-linecap="round"/>
<path d="M463.741 247.232H245.218C241.969 247.232 239.351 244.59 239.351 241.364V93.719C239.351 90.4697 241.992 87.8516 245.218 87.8516H463.741C466.99 87.8516 469.608 90.4931 469.608 93.719V241.341C469.631 244.59 466.99 247.232 463.741 247.232Z" fill="#66B0F0" stroke="#66B0F0" stroke-width="1.40258" stroke-miterlimit="10" stroke-linejoin="round"/>
<path d="M253.049 101.643H249.589C248.467 101.643 247.532 100.732 247.532 99.5862V96.1265C247.532 95.0044 248.444 94.0693 249.589 94.0693H253.049C254.171 94.0693 255.106 94.981 255.106 96.1265V99.5862C255.083 100.732 254.171 101.643 253.049 101.643Z" stroke="white" stroke-width="1.40258" stroke-miterlimit="10" stroke-linecap="round"/>
<path d="M268.781 101.643H265.322C264.2 101.643 263.265 100.732 263.265 99.5862V96.1265C263.265 95.0044 264.176 94.0693 265.322 94.0693H268.781C269.904 94.0693 270.839 94.981 270.839 96.1265V99.5862C270.839 100.732 269.904 101.643 268.781 101.643Z" stroke="white" stroke-width="1.40258" stroke-miterlimit="10" stroke-linecap="round"/>
<path d="M284.514 101.643H281.054C279.932 101.643 278.997 100.732 278.997 99.5862V96.1265C278.997 95.0044 279.909 94.0693 281.054 94.0693H284.514C285.636 94.0693 286.571 94.981 286.571 96.1265V99.5862C286.571 100.732 285.659 101.643 284.514 101.643Z" stroke="white" stroke-width="1.40258" stroke-miterlimit="10" stroke-linecap="round"/>
<path d="M399.853 314.204H314.202L331.01 261.584H383.022L399.853 314.204Z" fill="white" stroke="#3FB1B5" stroke-width="1.40258" stroke-miterlimit="10" stroke-linecap="round"/>
<path d="M320.935 293.142L331.01 261.584H383.022L320.935 293.142Z" fill="#3FB1B5"/>
<path d="M451.024 136.264H409.391C405.487 136.264 402.331 133.108 402.331 129.204V102.321C402.331 98.4175 405.487 95.2617 409.391 95.2617H451.024C454.928 95.2617 458.084 98.4175 458.084 102.321V129.204C458.084 133.108 454.928 136.264 451.024 136.264Z" stroke="white" stroke-width="1.40258" stroke-miterlimit="10" stroke-linecap="round"/>
<path d="M414.229 104.846H445.998" stroke="white" stroke-width="1.40258" stroke-miterlimit="10" stroke-linecap="round"/>
<path d="M414.229 112.092H445.998" stroke="white" stroke-width="1.40258" stroke-miterlimit="10" stroke-linecap="round"/>
<path d="M414.229 119.339H445.998" stroke="white" stroke-width="1.40258" stroke-miterlimit="10" stroke-linecap="round"/>
<path d="M414.229 126.585H445.998" stroke="white" stroke-width="1.40258" stroke-miterlimit="10" stroke-linecap="round"/>
<path d="M462.525 247.232H297.043L287.342 261.141C276.379 276.849 253.213 277.083 241.945 261.585L182.85 180.305C185.328 183.391 196.665 179.954 207.465 172.848C218.428 165.625 225.512 156.531 223.291 153.165L264.27 205.388L276.823 183.227C280.259 177.36 285.963 173.152 292.602 171.609L335.31 162.562H372.128L412.71 171.516C419.769 173.128 425.754 177.734 429.143 184.115L462.525 247.232Z" fill="white" stroke="#3FB1B5" stroke-width="1.40258" stroke-miterlimit="10"/>
<path d="M417.105 246.272L405.347 223.06" stroke="#3FB1B5" stroke-width="1.40258" stroke-miterlimit="10" stroke-linecap="round"/>
<path d="M296.108 248.447L307.75 225.468" stroke="#3FB1B5" stroke-width="1.40258" stroke-miterlimit="10" stroke-linecap="round"/>
<path d="M248.327 185.12L275 219.226" stroke="#3FB1B5" stroke-width="1.40258" stroke-miterlimit="10" stroke-linecap="round"/>
<path d="M358.313 173.782L368.132 185.728L390.105 167.073" stroke="#3FB1B5" stroke-width="1.40258" stroke-miterlimit="10" stroke-linecap="round"/>
<path d="M350.809 174.016L341.272 186.195L317.124 167.073" stroke="#3FB1B5" stroke-width="1.40258" stroke-miterlimit="10" stroke-linecap="round"/>
<path d="M231.427 163.614C233.647 167.004 226.541 176.214 215.507 183.531C204.661 190.731 193.159 194.191 190.658 191.082" stroke="#3FB1B5" stroke-width="1.40258" stroke-miterlimit="10" stroke-linecap="round"/>
<path d="M224.086 169.527C225.545 169.527 226.727 168.345 226.727 166.886C226.727 165.427 225.545 164.244 224.086 164.244C222.627 164.244 221.444 165.427 221.444 166.886C221.444 168.345 222.627 169.527 224.086 169.527Z" stroke="#3FB1B5" stroke-width="1.40258" stroke-miterlimit="10" stroke-linecap="round"/>
<path d="M354.526 186.125C355.985 186.125 357.168 184.942 357.168 183.483C357.168 182.024 355.985 180.842 354.526 180.842C353.067 180.842 351.885 182.024 351.885 183.483C351.885 184.942 353.067 186.125 354.526 186.125Z" stroke="#3FB1B5" stroke-width="1.40258" stroke-miterlimit="10" stroke-linecap="round"/>
<path d="M354.526 207.397C355.985 207.397 357.168 206.215 357.168 204.756C357.168 203.297 355.985 202.114 354.526 202.114C353.067 202.114 351.885 203.297 351.885 204.756C351.885 206.215 353.067 207.397 354.526 207.397Z" stroke="#3FB1B5" stroke-width="1.40258" stroke-miterlimit="10" stroke-linecap="round"/>
<path d="M286.501 262.261L297.044 247.23V262.261H286.501Z" fill="#3FB1B5"/>
<path d="M207.208 172.146C196.408 179.252 185.071 182.689 182.593 179.603C182.546 179.556 182.523 179.51 182.476 179.439C181.962 178.668 182.008 177.616 182.476 176.33C184.089 172.099 190.751 165.554 199.213 159.99C205.946 155.549 212.585 152.463 217.19 151.505C219.855 150.967 221.842 151.131 222.8 152.159L223.034 152.44C225.231 155.806 218.172 164.923 207.208 172.146Z" fill="#FE5244"/>
<path d="M207.208 172.146C201.06 176.19 194.725 179.066 189.956 180.188L168.614 150.079C165.645 145.871 166.627 140.05 170.858 137.082L190.073 123.57L179.18 105.033C177.59 102.344 178.502 98.8611 181.214 97.2949C182.102 96.7806 183.06 96.5469 184.019 96.5469C185.866 96.5469 187.689 97.4586 188.764 99.1417L222.824 152.113L223.057 152.487C225.231 155.806 218.172 164.923 207.208 172.146Z" fill="#E57281"/>
<path d="M190.026 123.78L201.925 142.224C203.023 143.954 202.533 146.245 200.803 147.367L198.161 149.097C196.431 150.242 194.094 149.751 192.972 148.022L181.728 131.191" stroke="#9A3B82" stroke-width="1.40258" stroke-miterlimit="10" stroke-linecap="round"/>
<path d="M192.926 147.975C194.071 149.728 193.557 152.089 191.804 153.211L189.396 154.73C187.666 155.829 185.375 155.338 184.253 153.632" stroke="#9A3B82" stroke-width="1.40258" stroke-miterlimit="10" stroke-linecap="round"/>
<path d="M173.195 137.128L184.205 153.491C185.351 155.245 184.86 157.606 183.06 158.728L180.816 159.967C179.133 161.042 176.912 160.598 175.743 158.961L169.361 149.962" stroke="#9A3B82" stroke-width="1.40258" stroke-miterlimit="10" stroke-linecap="round"/>
<path d="M214.876 139.77L209.289 131.097C207.442 128.222 203.585 127.427 200.757 129.344L186.895 138.741C186.895 138.741 190.915 145.964 200.687 140.237L203.959 145.45C197.274 149.681 195.357 158.588 199.705 165.203L214.876 139.77Z" fill="#E57281"/>
<path d="M214.151 140.004L208.564 131.331C206.718 128.456 202.861 127.661 200.032 129.578L186.895 138.742C186.895 138.742 190.915 145.965 200.687 140.238L203.959 145.451C197.274 149.682 195.357 158.588 199.705 165.204" stroke="#9A3B82" stroke-width="1.40258" stroke-miterlimit="10" stroke-linecap="round"/>
<path d="M207.209 172.146C201.061 176.19 194.726 179.065 189.957 180.187L184.65 172.707C187.619 168.827 192.926 164.151 199.214 160.014C205.946 155.572 212.585 152.486 217.19 151.528C219.855 150.99 221.842 151.154 222.801 152.183L223.034 152.463C223.058 152.51 223.081 152.533 223.105 152.58C223.128 152.603 223.128 152.627 223.151 152.673C223.175 152.72 223.198 152.744 223.221 152.79C224.811 156.367 217.821 165.133 207.209 172.146Z" fill="#9A3B82"/>
<path d="M372.104 141.991V162.539C372.104 168.5 363.828 173.316 353.66 173.316C343.468 173.316 335.216 168.5 335.216 162.539V141.991H372.104Z" fill="#E57281"/>
<path d="M340.617 170.16C337.274 168.22 335.193 165.508 335.193 162.539V141.991H372.105V147.695C372.105 153.609 368.505 158.916 363.035 161.136L340.617 170.16Z" fill="#9A3B82"/>
<path d="M382.391 140.775V141.126C382.391 144.679 379.516 147.554 375.962 147.554H371.731C370.305 153.305 365.116 157.583 358.898 157.583H348.425C342.23 157.583 337.017 153.328 335.615 147.554H331.384C327.83 147.554 324.955 144.679 324.955 141.126V140.775C324.955 137.222 327.83 134.347 331.384 134.347H335.217V129.274C335.217 123.851 339.215 119.362 344.428 118.614C345.573 120.531 349.033 125.113 356.092 124.856C359.412 124.739 362.498 124.108 365.046 123.36C368.108 122.471 371.17 124.341 371.942 127.264C372.059 127.918 372.129 128.573 372.129 129.251V134.323H375.962C379.492 134.323 382.391 137.222 382.391 140.775Z" fill="#E57281"/>
<path d="M375.05 134.324H372.105V128.69C372.105 128.199 372.035 127.708 371.918 127.264C371.146 124.342 368.084 122.472 365.022 123.36C362.474 124.108 359.411 124.739 356.069 124.856C349.009 125.113 345.549 120.532 344.404 118.615C339.191 119.363 335.194 123.851 335.194 129.274V134.347H331.523C331.523 134.347 327.316 119.129 330.472 114.828C333.581 110.597 337.321 112.443 337.321 112.443C337.321 112.443 335.077 99.7733 347.606 100.007C360.113 100.241 376.383 114.758 377.575 117.423C379.445 121.513 375.05 134.324 375.05 134.324Z" fill="#9A3B82"/>
<path d="M373.53 141.969C373.53 139.467 375.564 137.457 378.042 137.457" stroke="#9A3B82" stroke-width="1.16882" stroke-miterlimit="10" stroke-linecap="round"/>
<path d="M333.838 141.97C333.838 139.468 331.804 137.458 329.326 137.458" stroke="#9A3B82" stroke-width="1.16882" stroke-miterlimit="10" stroke-linecap="round"/>
<path d="M366.214 129.275C366.214 129.275 362.894 126.844 358.663 128.597" stroke="#9A3B82" stroke-width="1.16882" stroke-miterlimit="10" stroke-linecap="round"/>
<path d="M340.874 129.275C340.874 129.275 344.193 126.844 348.425 128.597" stroke="#9A3B82" stroke-width="1.16882" stroke-miterlimit="10" stroke-linecap="round"/>
<path d="M359.481 146.527C359.481 146.527 357.681 150.408 352.164 148.374" stroke="#9A3B82" stroke-width="1.16882" stroke-miterlimit="10" stroke-linecap="round"/>
<path d="M351.907 144.517C353.333 144.61 355.507 144.517 355.507 144.517" stroke="#9A3B82" stroke-width="1.16882" stroke-miterlimit="10" stroke-linecap="round"/>
<path d="M362.45 139.024C363.096 139.024 363.619 138.145 363.619 137.06C363.619 135.976 363.096 135.097 362.45 135.097C361.805 135.097 361.281 135.976 361.281 137.06C361.281 138.145 361.805 139.024 362.45 139.024Z" fill="#9A3B82"/>
<path d="M345.689 139.024C346.335 139.024 346.858 138.145 346.858 137.06C346.858 135.976 346.335 135.097 345.689 135.097C345.044 135.097 344.521 135.976 344.521 137.06C344.521 138.145 345.044 139.024 345.689 139.024Z" fill="#9A3B82"/>
<path d="M348.472 143.674H341.109C339.683 143.674 338.537 142.529 338.537 141.103V133.739C338.537 132.313 339.683 131.168 341.109 131.168H348.472C349.898 131.168 351.043 132.313 351.043 133.739V141.103C351.067 142.506 349.898 143.674 348.472 143.674Z" stroke="white" stroke-width="1.16882" stroke-miterlimit="10"/>
<path d="M366.496 143.674H359.132C357.706 143.674 356.561 142.529 356.561 141.103V133.739C356.561 132.313 357.706 131.168 359.132 131.168H366.496C367.921 131.168 369.067 132.313 369.067 133.739V141.103C369.067 142.506 367.921 143.674 366.496 143.674Z" stroke="white" stroke-width="1.16882" stroke-miterlimit="10"/>
<path d="M351.067 136.03H356.561" stroke="white" stroke-width="1.16882" stroke-miterlimit="10"/>
<path d="M368.435 238.161H342.885C340.57 238.161 338.677 236.291 338.677 233.953V220.372C338.677 218.058 340.547 216.164 342.885 216.164H368.435C370.749 216.164 372.643 218.034 372.643 220.372V233.953C372.643 236.268 370.773 238.161 368.435 238.161Z" stroke="#66B0F0" stroke-width="1.40258" stroke-miterlimit="10" stroke-linejoin="round"/>
<path d="M356.303 232.691H347.654C346.274 232.691 345.152 231.569 345.152 230.19V224.135C345.152 222.756 346.274 221.634 347.654 221.634H356.303C357.682 221.634 358.804 222.756 358.804 224.135V230.19C358.804 231.569 357.682 232.691 356.303 232.691Z" fill="#66B0F0"/>
<path d="M364.718 232.527L362.054 230.751C361.329 230.26 360.885 229.418 360.885 228.507V225.842C360.885 224.93 361.329 224.089 362.054 223.598L364.718 221.821C365.35 221.4 366.168 221.868 366.168 222.663V231.709C366.191 232.481 365.35 232.948 364.718 232.527Z" fill="#66B0F0"/>
<path d="M710.151 314.673H89.5781" stroke="#3FB1B5" stroke-width="1.40258" stroke-miterlimit="10" stroke-linecap="round"/>
<path d="M289.376 318.764V607.369H273.083V552.434C273.083 547.315 268.922 543.154 263.802 543.154H147.177C142.058 543.154 137.897 547.315 137.897 552.434V607.369H121.604V318.764H289.376Z" fill="white" stroke="#3FB1B5" stroke-width="1.40258" stroke-miterlimit="10" stroke-linecap="round"/>
<path d="M289.867 318.764V395.345L121.604 533.897L121.627 318.764H289.867Z" fill="#D0F0E4"/>
<path d="M273.083 340.738V393.078C273.083 397.94 269.156 401.867 264.294 401.867H146.71C141.848 401.867 137.921 397.94 137.921 393.078V340.738C137.921 335.875 141.848 331.948 146.71 331.948H264.294C269.156 331.948 273.083 335.875 273.083 340.738Z" stroke="#3FB1B5" stroke-width="1.40258" stroke-miterlimit="10" stroke-linecap="round"/>
<path d="M235.4 441.513H177.52L175.112 424.939H233.016L235.4 441.513Z" fill="#FFCF2D"/>
<path d="M266.28 415.378C259.057 415.378 253.213 421.222 253.213 428.445V441.513H203.959V428.445C203.959 421.222 209.803 415.378 217.026 415.378H266.28Z" fill="white" stroke="#3FB1B5" stroke-width="1.40258" stroke-miterlimit="10" stroke-linecap="round"/>
<path d="M278.553 424.939H229.299C227.78 419.422 222.707 415.378 216.699 415.378H265.953C271.961 415.378 277.01 419.422 278.553 424.939Z" fill="white" stroke="#3FB1B5" stroke-width="1.40258" stroke-miterlimit="10" stroke-linecap="round"/>
<path d="M273.083 450.303V502.643C273.083 507.505 269.156 511.432 264.294 511.432H146.71C141.848 511.432 137.921 507.505 137.921 502.643V450.303C137.921 445.441 141.848 441.514 146.71 441.514H264.294C269.156 441.514 273.083 445.441 273.083 450.303Z" stroke="#3FB1B5" stroke-width="1.40258" stroke-miterlimit="10" stroke-linecap="round"/>
<path d="M181.425 365.867C181.425 361.706 184.791 358.316 188.975 358.316H222.053C226.214 358.316 229.604 361.683 229.604 365.867" stroke="#3FB1B5" stroke-width="1.40258" stroke-miterlimit="10" stroke-linecap="round"/>
<path d="M181.425 475.432C181.425 471.271 184.791 467.882 188.975 467.882H222.053C226.214 467.882 229.604 471.248 229.604 475.432" stroke="#3FB1B5" stroke-width="1.40258" stroke-miterlimit="10" stroke-linecap="round"/>
<path d="M685.443 318.764H668.074V608H685.443V318.764Z" fill="white" stroke="#3FB1B5" stroke-width="1.40258" stroke-miterlimit="10" stroke-linecap="round"/>
<path d="M390.269 608H752.743" stroke="#3FB1B5" stroke-width="1.40258" stroke-miterlimit="10" stroke-linecap="round"/>
<path d="M170.929 275.004H160.433C160.433 275.004 145.449 212.565 132.288 210.532C119.127 208.498 118.449 232.529 118.449 232.529C118.449 232.529 118.683 195.991 151.574 200.994C184.488 205.997 170.929 275.004 170.929 275.004Z" fill="white" stroke="#3FB1B5" stroke-width="1.40258" stroke-miterlimit="10" stroke-linecap="round"/>
<path d="M134.976 202.584C134.976 202.584 164.967 191.504 166.323 274.069" stroke="#3FB1B5" stroke-width="1.40258" stroke-miterlimit="10" stroke-linecap="round"/>
<path d="M199.518 274.068H150.217V314.206H199.518V274.068Z" fill="#FE5244"/>
<path d="M209.897 294.148C206.765 295.504 203.024 295.341 199.541 293.821C196.97 292.699 194.539 290.852 192.575 288.328C189.864 284.821 188.04 280.029 188.04 274.068C188.04 259.622 176.539 250.551 171.817 269.673C171.49 271.006 171.186 272.455 170.929 274.068V274.021V273.928C170.929 273.881 170.929 273.811 170.952 273.741V273.647C171.046 272.455 171.396 268.925 172.472 264.671C173.266 261.515 174.459 258.009 176.235 254.759C177.123 253.146 178.152 251.603 179.368 250.224C182.5 246.624 186.801 244.1 192.669 244.1C203.469 244.1 211.37 256.816 214.385 269.486C217.027 280.497 215.952 291.507 209.897 294.148Z" fill="white" stroke="#3FB1B5" stroke-width="1.40258" stroke-miterlimit="10" stroke-linecap="round"/>
<path d="M179.392 250.225C179.392 250.225 201.038 234.82 207.397 294.593" stroke="#3FB1B5" stroke-width="1.40258" stroke-miterlimit="10" stroke-linecap="round"/>
<path d="M117.748 232.529C117.748 236.386 117.304 251.137 131.376 251.815C145.449 252.493 146.851 231.243 146.851 231.243C146.851 231.243 139.932 212.449 132.288 210.532C119.361 207.283 117.748 232.529 117.748 232.529Z" fill="#3FB1B5"/>
<path d="M188.04 274.068H170.929C174.879 249.313 188.04 258.617 188.04 274.068Z" fill="#3FB1B5"/>
<path opacity="0.4" d="M478.632 92.2459V246.553C478.632 254.852 471.9 261.561 463.624 261.561H287.016C275.935 276.826 253.097 276.896 241.923 261.561L241.899 261.538C237.458 261.234 233.531 258.966 231.006 255.624L235.073 252.117L338.865 162.539L437.7 77.2383H463.624C471.9 77.2383 478.632 83.9707 478.632 92.2459Z" fill="white"/>
<path opacity="0.4" d="M209.896 294.849C206.787 296.251 203.024 296.041 199.541 294.521V314.204H163.144L192.598 288.794L199.564 282.787L204.87 278.205L215.133 269.485C218.125 282.249 216.465 291.833 209.896 294.849Z" fill="white"/>
<path d="M18.327 99.2135C18.0465 99.2135 17.766 99.0264 17.6725 98.7459C17.5556 98.3719 17.7426 97.9745 18.0933 97.8576L20.2906 97.0862C20.6647 96.9693 21.0621 97.1563 21.1789 97.507C21.2958 97.881 21.1088 98.2784 20.7582 98.3953L18.5608 99.1667C18.4673 99.1901 18.3972 99.2135 18.327 99.2135ZM23.8439 97.2966C23.5633 97.2966 23.2828 97.1096 23.1893 96.8291C23.0724 96.455 23.2594 96.0576 23.6101 95.9408L25.8075 95.1693C26.1815 95.0525 26.5789 95.2395 26.6958 95.5901C26.8127 95.9641 26.6256 96.3615 26.275 96.4784L24.0776 97.2498C24.0075 97.2732 23.914 97.2966 23.8439 97.2966ZM29.3607 95.3563C29.0802 95.3563 28.7996 95.1693 28.7061 94.8888C28.5893 94.5148 28.7763 94.1174 29.1269 94.0005L31.3243 93.2291C31.6983 93.1122 32.0957 93.2992 32.2126 93.6499C32.3295 94.0239 32.1425 94.4213 31.7918 94.5382L29.5944 95.3096C29.5243 95.3563 29.4308 95.3563 29.3607 95.3563ZM34.8775 93.4395C34.597 93.4395 34.3165 93.2525 34.223 92.9719C34.1061 92.5979 34.2931 92.2005 34.6437 92.0836L36.8411 91.3122C37.2151 91.1954 37.6126 91.3824 37.7294 91.733C37.8463 92.107 37.6593 92.5044 37.3086 92.6213L35.1113 93.3927C35.0411 93.4395 34.971 93.4395 34.8775 93.4395ZM40.3943 91.5226C40.1138 91.5226 39.8333 91.3356 39.7398 91.0551C39.6229 90.6811 39.8099 90.2837 40.1606 90.1668L42.3579 89.3954C42.732 89.2785 43.1294 89.4655 43.2463 89.8161C43.3631 90.1902 43.1761 90.5876 42.8255 90.7044L40.6281 91.4759C40.558 91.5226 40.4879 91.5226 40.3943 91.5226ZM45.9345 89.6058C45.654 89.6058 45.3735 89.4187 45.28 89.1382C45.1631 88.7642 45.3501 88.3668 45.7008 88.2499L47.8982 87.4785C48.2722 87.3616 48.6696 87.5486 48.7865 87.8993C48.9033 88.2733 48.7163 88.6707 48.3657 88.7876L46.1683 89.559C46.0748 89.6058 46.0047 89.6058 45.9345 89.6058ZM51.4514 87.6889C51.1708 87.6889 50.8903 87.5019 50.7968 87.2214C50.68 86.8473 50.867 86.4499 51.2176 86.3331L53.415 85.5616C53.789 85.4447 54.1864 85.6318 54.3033 85.9824C54.4202 86.3564 54.2332 86.7538 53.8825 86.8707L51.6851 87.6421C51.5916 87.6655 51.5215 87.6889 51.4514 87.6889ZM56.9682 85.772C56.6877 85.772 56.4072 85.585 56.3137 85.3045C56.1968 84.9305 56.3838 84.5331 56.7344 84.4162L58.9318 83.6448C59.3058 83.5279 59.7032 83.7149 59.8201 84.0656C59.937 84.4396 59.75 84.837 59.3993 84.9539L57.202 85.7253C57.1084 85.7486 57.0383 85.772 56.9682 85.772ZM62.485 83.8552C62.2045 83.8552 61.924 83.6681 61.8305 83.3876C61.7136 83.0136 61.9006 82.6162 62.2513 82.4993L64.4486 81.7279C64.8227 81.611 65.2201 81.798 65.3369 82.1487C65.4538 82.5227 65.2668 82.9201 64.9162 83.037L62.7188 83.8084C62.6487 83.8318 62.5552 83.8552 62.485 83.8552ZM68.0019 81.9383C67.7213 81.9383 67.4408 81.7513 67.3473 81.4708C67.2304 81.0967 67.4175 80.6993 67.7681 80.5825L69.9655 79.811C70.3395 79.6942 70.7369 79.8812 70.8538 80.2318C70.9707 80.6058 70.7837 81.0032 70.433 81.1201L68.2356 81.8916C68.1655 81.9149 68.072 81.9383 68.0019 81.9383ZM73.5187 80.0214C73.2382 80.0214 72.9576 79.8344 72.8641 79.5539C72.7473 79.1799 72.9343 78.7825 73.2849 78.6656L75.4823 77.8942C75.8563 77.7773 76.2537 77.9643 76.3706 78.315C76.4875 78.689 76.3005 79.0864 75.9498 79.2033L73.7524 79.9747C73.6823 79.9981 73.5888 80.0214 73.5187 80.0214ZM79.0355 78.0812C78.755 78.0812 78.4745 77.8942 78.381 77.6137C78.2641 77.2396 78.4511 76.8422 78.8017 76.7254L80.9991 75.9539C81.3731 75.8371 81.7706 76.0241 81.8874 76.3747C82.0043 76.7487 81.8173 77.1461 81.4667 77.263L79.2693 78.0344C79.1991 78.0812 79.129 78.0812 79.0355 78.0812ZM84.5523 76.1643C84.2718 76.1643 83.9913 75.9773 83.8978 75.6968C83.7809 75.3228 83.9679 74.9254 84.3186 74.8085L86.5159 74.0371C86.89 73.9202 87.2874 74.1072 87.4043 74.4578C87.5211 74.8319 87.3341 75.2293 86.9835 75.3462L84.7861 76.1176C84.716 76.1643 84.6458 76.1643 84.5523 76.1643ZM90.0925 74.2475C89.812 74.2475 89.5315 74.0605 89.438 73.7799C89.3211 73.4059 89.5081 73.0085 89.8588 72.8916L92.0562 72.1202C92.4302 72.0033 92.8276 72.1903 92.9445 72.541C93.0613 72.915 92.8743 73.3124 92.5237 73.4293L90.3263 74.2007C90.2328 74.2475 90.1627 74.2475 90.0925 74.2475ZM95.6094 72.3306C95.3289 72.3306 95.0483 72.1436 94.9548 71.8631C94.8379 71.4891 95.025 71.0917 95.3756 70.9748L97.573 70.2034C97.947 70.0865 98.3444 70.2735 98.4613 70.6241C98.5782 70.9982 98.3912 71.3955 98.0405 71.5124L95.8431 72.2838C95.7496 72.3306 95.6795 72.3306 95.6094 72.3306ZM101.126 70.4137C100.846 70.4137 100.565 70.2267 100.472 69.9462C100.355 69.5722 100.542 69.1748 100.892 69.0579L103.09 68.2865C103.464 68.1696 103.861 68.3566 103.978 68.7073C104.095 69.0813 103.908 69.4787 103.557 69.5956L101.36 70.367C101.266 70.4137 101.196 70.4137 101.126 70.4137ZM106.643 68.4969C106.362 68.4969 106.082 68.3099 105.988 68.0293C105.872 67.6553 106.059 67.2579 106.409 67.141L108.607 66.3696C108.981 66.2527 109.378 66.4397 109.495 66.7904C109.612 67.1644 109.425 67.5618 109.074 67.6787L106.877 68.4501C106.807 68.4735 106.713 68.4969 106.643 68.4969ZM112.16 66.58C111.879 66.58 111.599 66.393 111.505 66.1125C111.388 65.7385 111.575 65.3411 111.926 65.2242L114.123 64.4528C114.497 64.3359 114.895 64.5229 115.012 64.8735C115.129 65.2475 114.942 65.645 114.591 65.7618L112.394 66.5333C112.324 66.5566 112.23 66.58 112.16 66.58Z" fill="#FFCF2D"/>
<path d="M43.1995 99.2132C42.8021 99.2132 42.4982 98.9093 42.4982 98.5119C42.4982 92.1769 40.5345 87.5717 36.6307 84.8601C33.7086 82.8263 30.7398 82.6393 30.7165 82.6393C30.3191 82.6159 30.0385 82.2887 30.0619 81.8913C30.0853 81.4939 30.4126 81.2133 30.7866 81.2367C30.9268 81.2367 34.1294 81.4237 37.3787 83.6679C42.7787 87.4081 43.9007 93.8132 43.9007 98.5119C43.9007 98.8859 43.5969 99.2132 43.1995 99.2132Z" fill="#3FB1B5"/>
<path d="M154.892 99.2136H18.3273C18.0701 99.2136 17.813 99.0733 17.6961 98.8162C17.5792 98.5824 17.6026 98.3019 17.7662 98.0915L73.2618 24.1053C73.3787 23.9416 73.5657 23.8481 73.7527 23.8247C73.9397 23.8014 74.1501 23.8715 74.2904 24.0118L155.383 97.998C155.593 98.185 155.664 98.4889 155.57 98.7694C155.453 99.0266 155.196 99.2136 154.892 99.2136ZM19.7298 97.811H153.092L73.9163 25.5546L19.7298 97.811Z" fill="#3FB1B5"/>
<path d="M6.05449 104.076C2.71167 104.076 0 101.364 0 98.0213C0 94.6785 2.71167 91.9668 6.05449 91.9668C9.39732 91.9668 12.109 94.6785 12.109 98.0213C12.109 101.364 9.39732 104.076 6.05449 104.076ZM6.05449 93.346C3.48309 93.346 1.40258 95.4265 1.40258 97.9979C1.40258 100.569 3.48309 102.65 6.05449 102.65C8.62589 102.65 10.7064 100.569 10.7064 97.9979C10.7064 95.4265 8.62589 93.346 6.05449 93.346Z" fill="#FFCF2D"/>
<path d="M12.1086 98.0215H10.7061V103.375H12.1086V98.0215Z" fill="#FFCF2D"/>
<path d="M77.9598 19.4996C74.6169 19.4996 71.9053 16.7879 71.9053 13.4451C71.9053 10.1023 74.6169 7.39062 77.9598 7.39062C81.3026 7.39062 84.0143 10.1023 84.0143 13.4451C84.0143 16.7646 81.3026 19.4996 77.9598 19.4996ZM77.9598 8.76983C75.3884 8.76983 73.3079 10.8503 73.3079 13.4217C73.3079 15.9931 75.3884 18.097 77.9598 18.097C80.5312 18.097 82.6117 16.0165 82.6117 13.4451C82.6117 10.8737 80.5312 8.76983 77.9598 8.76983Z" fill="#FFCF2D"/>
<path d="M73.262 4.07129H71.8594V18.775H73.262V4.07129Z" fill="#FFCF2D"/>
<path d="M165.808 103.935C162.466 103.935 159.754 101.223 159.754 97.8806C159.754 94.5378 162.466 91.8262 165.808 91.8262V93.2288C163.237 93.2288 161.156 95.3092 161.156 97.8806C161.156 100.452 163.237 102.533 165.808 102.533V103.935Z" fill="#FFCF2D"/>
<path d="M286.244 276.407H336.669V319.716H286.244C286.244 319.716 286.244 274.773 286.244 276.407Z" fill="#FFCF2D"/>
<path d="M474.8 477.636L451.353 419.252H489.105L474.8 477.636Z" fill="#3FB1B5"/>
<path d="M410.465 341.324C415.496 331.807 425.389 325.855 436.146 325.855H465.188L484.919 341.324H410.465Z" fill="#3FB1B5"/>
<path d="M520.569 409.677H447.411L474.951 476.528C473.036 473.412 461.565 476.659 449.419 484.112C437.423 491.471 429.313 500.332 430.965 503.561L371.605 400.272C356.211 374.215 374.984 341.324 405.246 341.324H569.191L569.548 342.451C580.249 375.679 555.468 409.677 520.569 409.677Z" fill="#3FB1B5"/>
<path d="M572.026 360.491C571.763 366.593 570.412 372.487 568.121 377.95L482.141 341.343H567.483L569.473 347.162C570.862 350.654 571.632 355.554 572.026 360.491Z" fill="#E6E6E6"/>
<path d="M474.969 476.527C476.884 479.644 468.511 488.148 456.384 495.601C444.237 503.054 432.955 506.79 431.04 503.673C429.125 500.557 437.291 491.752 449.438 484.299C461.565 476.846 473.035 473.411 474.969 476.527Z" fill="#66B0F0"/>
<path d="M448.03 484.337L394.64 389.946C390.453 382.475 395.841 373.238 404.42 373.238H508.404C522.409 373.238 532.866 360.341 529.975 346.637" stroke="white" stroke-width="1.12638" stroke-miterlimit="10" stroke-linecap="round"/>
<path d="M430.421 503.88C428.506 500.763 436.785 490.851 449.438 483.473C463.65 475.194 472.848 472.735 475.589 477.128" stroke="white" stroke-width="1.12638" stroke-miterlimit="10" stroke-linecap="round"/>
<path d="M476.002 477.542L441.122 394.377" stroke="white" stroke-width="1.12638" stroke-miterlimit="10" stroke-linecap="round"/>
<path d="M403.2 340.704H488.299" stroke="white" stroke-width="1.12638" stroke-miterlimit="10"/>
<path d="M451.335 507.973L446.266 501.064L439.282 491.565C442.136 489.162 445.571 486.666 449.42 484.3C457.079 479.607 464.457 476.491 469.357 475.627L472.755 482.404L476.997 490.852C473.994 501.534 451.335 507.973 451.335 507.973Z" fill="#E57281"/>
<path d="M472.773 482.404C469.619 486.252 463.687 491.115 456.384 495.601C452.874 497.76 449.438 499.6 446.284 501.064L439.301 491.565C442.154 489.162 445.59 486.666 449.438 484.3C457.098 479.607 464.475 476.491 469.375 475.627L472.773 482.404Z" fill="#3FB1B5"/>
<path d="M500.2 528.079L448.687 565.081C444.313 568.122 437.517 570.656 438.418 559.655C439.676 544.486 443.036 521.921 451.334 507.954C451.691 507.86 473.993 501.421 476.997 490.833L500.482 507.522C507.24 512.779 507.09 523.029 500.2 528.079Z" fill="white" stroke="#FFCF2D" stroke-width="1.12638" stroke-miterlimit="10"/>
<path d="M448.95 512.854C453.043 513.624 476.021 505.476 479.588 492.917" stroke="#FFCF2D" stroke-width="1.12638" stroke-miterlimit="10" stroke-linecap="round"/>
<path d="M443.412 561.27C443.412 561.27 477.035 514.563 500.952 517.191C526.99 520.026 422.123 588.51 443.412 561.27Z" fill="#FFCF2D"/>
<path d="M442.455 567.634C439.845 567.803 437.086 564.762 440.897 559.881C440.897 559.881 475.89 511.446 500.802 514.187C504.65 514.6 505.945 517.735 505.044 520.439" stroke="#FFCF2D" stroke-width="1.12638" stroke-miterlimit="10" stroke-linecap="round"/>
<path d="M572.215 364.303C560.313 361.487 530.689 354.072 496.897 346.262C481.015 342.601 467.724 331.788 460.872 316.995L430.103 250.425L448.725 220.914C454.451 211.828 464.213 206.046 474.933 205.389L493.255 204.262C511.728 203.136 526.559 214.663 532.191 232.291L569.455 341.325C573.548 351.537 572.215 364.303 572.215 364.303Z" fill="white" stroke="#FE5244" stroke-width="1.12638" stroke-miterlimit="10"/>
<path d="M446.304 254.161C446.304 254.161 456.103 269.555 478.424 272.953" stroke="#FE5244" stroke-width="1.12638" stroke-miterlimit="10"/>
<path d="M459.519 226.152C458.506 225.063 456.722 225.363 456.103 226.696C455.408 228.198 456.666 229.869 458.299 229.625C459.97 229.381 460.664 227.372 459.519 226.152Z" fill="#FFCF2D" stroke="#FE5244" stroke-width="1.12638" stroke-miterlimit="10" stroke-linejoin="round"/>
<path d="M506.283 258.236C505.269 257.147 503.486 257.447 502.866 258.78C502.172 260.282 503.429 261.953 505.063 261.709C506.733 261.465 507.428 259.456 506.283 258.236Z" fill="#FFCF2D" stroke="#FE5244" stroke-width="1.12638" stroke-miterlimit="10" stroke-linejoin="round"/>
<path d="M521.094 271.376C520.081 270.287 518.297 270.588 517.678 271.921C516.983 273.422 518.241 275.093 519.874 274.849C521.526 274.624 522.221 272.615 521.094 271.376Z" fill="#FFCF2D" stroke="#FE5244" stroke-width="1.12638" stroke-miterlimit="10" stroke-linejoin="round"/>
<path d="M549.499 345.737C548.485 344.648 546.702 344.948 546.082 346.281C545.387 347.783 546.645 349.454 548.279 349.21C549.931 348.966 550.625 346.976 549.499 345.737Z" fill="#FFCF2D" stroke="#FE5244" stroke-width="1.12638" stroke-miterlimit="10" stroke-linejoin="round"/>
<path d="M533.597 310.199C532.584 309.111 530.8 309.411 530.181 310.744C529.486 312.246 530.744 313.917 532.377 313.672C534.048 313.428 534.743 311.42 533.597 310.199Z" fill="#FFCF2D" stroke="#FE5244" stroke-width="1.12638" stroke-miterlimit="10" stroke-linejoin="round"/>
<path d="M540.187 284.63C538.723 284.818 537.915 286.451 538.647 287.728C539.474 289.173 541.557 289.117 542.308 287.634C543.078 286.132 541.839 284.405 540.187 284.63Z" fill="#FFCF2D" stroke="#FE5244" stroke-width="1.12638" stroke-miterlimit="10" stroke-linejoin="round"/>
<path d="M552.183 322.551C550.719 322.739 549.911 324.372 550.644 325.649C551.47 327.094 553.553 327.038 554.304 325.555C555.074 324.053 553.854 322.326 552.183 322.551Z" fill="#FFCF2D" stroke="#FE5244" stroke-width="1.12638" stroke-miterlimit="10" stroke-linejoin="round"/>
<path d="M502.434 281.645C501.421 280.556 499.637 280.856 499.018 282.189C498.323 283.691 499.581 285.362 501.214 285.118C502.866 284.874 503.561 282.884 502.434 281.645Z" fill="#FFCF2D" stroke="#FE5244" stroke-width="1.12638" stroke-miterlimit="10" stroke-linejoin="round"/>
<path d="M492.091 302.915C491.077 301.826 489.293 302.127 488.674 303.46C487.979 304.962 489.237 306.632 490.87 306.388C492.541 306.144 493.236 304.136 492.091 302.915Z" fill="#FFCF2D" stroke="#FE5244" stroke-width="1.12638" stroke-miterlimit="10" stroke-linejoin="round"/>
<path d="M473.58 295.481C474.669 294.467 474.368 292.684 473.036 292.064C471.534 291.37 469.863 292.628 470.107 294.261C470.351 295.913 472.341 296.608 473.58 295.481Z" fill="#FFCF2D" stroke="#FE5244" stroke-width="1.12638" stroke-miterlimit="10" stroke-linejoin="round"/>
<path d="M490.007 332.089C491.096 331.075 490.795 329.291 489.462 328.672C487.96 327.977 486.29 329.235 486.534 330.868C486.778 332.539 488.786 333.234 490.007 332.089Z" fill="#FFCF2D" stroke="#FE5244" stroke-width="1.12638" stroke-miterlimit="10" stroke-linejoin="round"/>
<path d="M517.659 300.681C518.748 299.668 518.448 297.884 517.115 297.265C515.613 296.57 513.942 297.828 514.186 299.461C514.43 301.113 516.439 301.827 517.659 300.681Z" fill="#FFCF2D" stroke="#FE5244" stroke-width="1.12638" stroke-miterlimit="10" stroke-linejoin="round"/>
<path d="M527.102 339.992C528.191 338.978 527.891 337.195 526.558 336.575C525.056 335.881 523.385 337.138 523.629 338.772C523.855 340.442 525.863 341.137 527.102 339.992Z" fill="#FFCF2D" stroke="#FE5244" stroke-width="1.12638" stroke-miterlimit="10" stroke-linejoin="round"/>
<path d="M470.483 260.375C469.469 259.286 467.686 259.587 467.066 260.92C466.372 262.422 467.63 264.092 469.263 263.848C470.934 263.604 471.628 261.595 470.483 260.375Z" fill="#FFCF2D" stroke="#FE5244" stroke-width="1.12638" stroke-miterlimit="10" stroke-linejoin="round"/>
<path d="M473.843 211.678C472.829 210.589 471.045 210.89 470.426 212.222C469.731 213.724 470.989 215.395 472.622 215.151C474.293 214.907 474.988 212.898 473.843 211.678Z" fill="#FFCF2D" stroke="#FE5244" stroke-width="1.12638" stroke-miterlimit="10" stroke-linejoin="round"/>
<path d="M506.283 211.678C505.269 210.589 503.486 210.89 502.866 212.222C502.172 213.724 503.429 215.395 505.063 215.151C506.733 214.907 507.428 212.898 506.283 211.678Z" fill="#FFCF2D" stroke="#FE5244" stroke-width="1.12638" stroke-miterlimit="10" stroke-linejoin="round"/>
<path d="M506.339 232.704C504.969 233.249 504.575 235.013 505.607 236.083C506.752 237.266 508.761 236.722 509.137 235.107C509.512 233.474 507.898 232.085 506.339 232.704Z" fill="#FFCF2D" stroke="#FE5244" stroke-width="1.12638" stroke-miterlimit="10" stroke-linejoin="round"/>
<path d="M487.904 220.726C486.477 221.139 485.933 222.848 486.834 224.012C487.866 225.307 489.912 224.95 490.438 223.392C490.983 221.796 489.499 220.257 487.904 220.726Z" fill="#FFCF2D" stroke="#FE5244" stroke-width="1.12638" stroke-miterlimit="10" stroke-linejoin="round"/>
<path d="M485.182 272.728C483.718 272.897 482.892 274.511 483.605 275.807C484.412 277.252 486.496 277.233 487.266 275.769C488.054 274.286 486.853 272.54 485.182 272.728Z" fill="#FFCF2D" stroke="#FE5244" stroke-width="1.12638" stroke-miterlimit="10" stroke-linejoin="round"/>
<path d="M469.093 311.832C467.629 312.001 466.803 313.616 467.516 314.911C468.324 316.357 470.407 316.338 471.177 314.874C471.966 313.39 470.764 311.645 469.093 311.832Z" fill="#FFCF2D" stroke="#FE5244" stroke-width="1.12638" stroke-miterlimit="10" stroke-linejoin="round"/>
<path d="M474.5 236.233C473.074 236.646 472.529 238.354 473.43 239.518C474.463 240.814 476.509 240.457 477.035 238.899C477.579 237.322 476.115 235.782 474.5 236.233Z" fill="#FFCF2D" stroke="#FE5244" stroke-width="1.12638" stroke-miterlimit="10" stroke-linejoin="round"/>
<path d="M490.044 246.747C488.618 247.16 488.073 248.868 488.974 250.032C490.007 251.327 492.053 250.971 492.579 249.413C493.123 247.817 491.659 246.277 490.044 246.747Z" fill="#FFCF2D" stroke="#FE5244" stroke-width="1.12638" stroke-miterlimit="10" stroke-linejoin="round"/>
<path d="M456.384 246.296C457.323 245.151 456.816 243.424 455.389 242.992C453.812 242.504 452.31 243.968 452.78 245.545C453.249 247.16 455.314 247.591 456.384 246.296Z" fill="#FFCF2D" stroke="#FE5244" stroke-width="1.12638" stroke-miterlimit="10" stroke-linejoin="round"/>
<path d="M527.553 246.352C528.492 245.207 527.985 243.479 526.558 243.048C524.981 242.56 523.479 244.024 523.949 245.601C524.399 247.215 526.483 247.647 527.553 246.352Z" fill="#FFCF2D" stroke="#FE5244" stroke-width="1.12638" stroke-miterlimit="10" stroke-linejoin="round"/>
<path d="M509.493 322.458C510.432 321.313 509.925 319.586 508.499 319.154C506.922 318.666 505.42 320.13 505.889 321.707C506.34 323.303 508.423 323.735 509.493 322.458Z" fill="#FFCF2D" stroke="#FE5244" stroke-width="1.12638" stroke-miterlimit="10" stroke-linejoin="round"/>
<path d="M494.512 203.641C494.099 203.66 493.686 203.679 493.254 203.698L474.932 204.824C470.257 205.106 465.789 206.363 461.734 208.447L456.103 191.589L481.202 173.191L494.512 203.641Z" fill="#E57281"/>
<path d="M461.659 208.186C466.878 205.82 471.046 201.615 473.411 196.396L482.535 176.215L481.202 173.174L456.103 191.571L461.659 208.186Z" fill="#9A3B82"/>
<path d="M482.817 174.882C482.817 176.628 482.104 178.205 480.958 179.35C479.813 180.495 478.236 181.209 476.49 181.209H470.971C468.793 189.675 460.364 195.476 451.297 193.881L447.148 193.148C442.605 192.341 439.507 188.098 440.146 183.537L445.008 159.188C445.853 153.988 451.203 150.815 456.178 152.599L464.232 155.828C468.587 157.329 471.516 161.422 471.516 166.021V168.368L476.49 168.556C479.982 168.556 482.817 171.39 482.817 174.882Z" fill="#E57281"/>
<path d="M473.468 176.103C473.468 173.681 475.42 171.729 477.842 171.729" stroke="#9A3B82" stroke-width="0.938654" stroke-miterlimit="10" stroke-linecap="round"/>
<path d="M447.711 164.313C447.711 164.313 451.653 164.313 454.469 168.087" stroke="#9A3B82" stroke-width="0.938654" stroke-miterlimit="10" stroke-linecap="round"/>
<path d="M450.331 171.34C450.53 170.248 450.277 169.288 449.767 169.196C449.257 169.103 448.683 169.913 448.484 171.004C448.286 172.096 448.538 173.056 449.049 173.148C449.559 173.241 450.133 172.431 450.331 171.34Z" fill="#9A3B82"/>
<path d="M476.49 168.556C479.982 168.556 482.817 171.39 482.817 174.882C482.817 174.901 482.817 174.938 482.817 174.976C485.633 170.639 492.541 159.601 492.541 155.865C492.541 150.853 486.29 145.84 479.813 148.13C480.245 147.811 480.695 147.473 481.165 147.117C483.661 145.164 484.976 143.7 485.182 142.649C485.257 142.273 485.201 141.935 485.013 141.673C484.262 140.602 483.436 140.133 482.554 140.283C481.259 140.49 479.926 142.086 478.593 145.014C477.992 146.347 477.523 147.661 477.26 148.468C476.734 145.333 474.2 134.952 463.311 136.547C459.557 137.092 457.792 138.65 457.304 140.358C454.188 137.918 450.02 136.003 446.566 137.824C440.596 140.959 441.328 146.103 444.782 149.745C441.516 149.689 439.226 150.646 439.226 153.406C439.226 155.94 441.835 157.16 445.421 157.648C449.006 158.137 453.606 157.874 457.586 157.423C460.42 157.104 462.974 156.71 464.607 156.428C463.518 158.662 463.086 160.577 463.18 162.191C463.349 165.533 465.771 167.504 469.187 168.199C469.92 168.349 470.708 168.443 471.515 168.48L476.49 168.556ZM482.667 141.034C482.723 141.015 482.779 141.015 482.854 141.015C483.38 141.015 483.887 141.391 484.394 142.104C484.431 142.179 484.488 142.292 484.45 142.499C484.15 144.019 480.301 146.91 478.067 148.431C478.949 145.84 480.808 141.353 482.667 141.034Z" fill="#FFCF2D"/>
<path d="M461.509 146.591C460.214 146.591 458.9 145.897 457.942 144.676C456.872 143.325 456.516 141.654 456.966 140.208C457.022 140.021 457.21 139.908 457.398 139.946C457.473 139.946 457.548 139.964 457.604 140.021C460.439 142.048 462.711 144.939 462.373 146.084C462.298 146.385 462.054 146.573 461.734 146.591C461.659 146.591 461.584 146.591 461.509 146.591ZM457.567 140.922C457.398 142.011 457.736 143.212 458.524 144.207C459.369 145.277 460.533 145.897 461.659 145.822C461.697 145.334 460.439 143.1 457.567 140.922Z" fill="white"/>
<path d="M424.451 312.358H304.304C301.337 312.358 299.554 309.091 301.131 306.594L317.126 281.476C319.209 278.209 322.795 276.238 326.662 276.238H407.987L424.451 312.358Z" fill="#E57281"/>
<path d="M329.309 276.257L338.883 260.487C339.446 259.549 340.479 258.967 341.567 258.967C344.027 258.967 345.529 261.651 344.252 263.754L336.649 276.257H329.309Z" fill="#FE5244"/>
<path d="M424.451 312.358H397.436C397.38 312.301 397.305 312.226 397.249 312.17C390.678 305.412 387.881 295.162 391.579 285.287L395.428 276.238H407.987L424.451 312.358Z" fill="#9A3B82"/>
<path d="M321.274 295.499H306.218C305.204 295.499 304.266 296.043 303.759 296.926L302.163 299.704C301.093 301.582 302.445 303.928 304.622 303.928H316.731C318.834 303.928 320.786 302.839 321.894 301.037L323.189 298.916C324.09 297.414 323.02 295.499 321.274 295.499Z" fill="#E57281"/>
<path d="M317.388 303.929H302.332C301.319 303.929 300.38 304.473 299.873 305.355L298.277 308.134C297.207 310.011 298.559 312.358 300.737 312.358H312.845C314.948 312.358 316.9 311.269 318.008 309.467L319.303 307.345C320.223 305.844 319.134 303.929 317.388 303.929Z" fill="#E57281"/>
<path d="M325.573 286.958H310.517C309.503 286.958 308.565 287.502 308.058 288.385L306.462 291.163C305.392 293.04 306.744 295.387 308.921 295.387H321.03C323.132 295.387 325.085 294.298 326.192 292.496L327.488 290.375C328.408 288.873 327.319 286.958 325.573 286.958Z" fill="#E57281"/>
<path d="M321.274 295.499H306.218C305.204 295.499 304.266 296.043 303.759 296.926L302.163 299.704C301.093 301.582 302.445 303.928 304.622 303.928H316.731C318.834 303.928 320.786 302.839 321.894 301.037L323.189 298.916C324.09 297.414 323.02 295.499 321.274 295.499Z" stroke="#9A3B82" stroke-width="0.938654" stroke-miterlimit="10" stroke-linecap="round"/>
<path d="M317.388 303.929H302.332C301.319 303.929 300.38 304.473 299.873 305.355L298.277 308.134C297.207 310.011 298.559 312.358 300.737 312.358H312.845C314.948 312.358 316.9 311.269 318.008 309.467L319.303 307.345C320.223 305.844 319.134 303.929 317.388 303.929Z" stroke="#9A3B82" stroke-width="0.938654" stroke-miterlimit="10" stroke-linecap="round"/>
<path d="M325.573 286.958H310.517C309.503 286.958 308.565 287.502 308.058 288.385L306.462 291.163C305.392 293.04 306.744 295.387 308.921 295.387H321.03C323.132 295.387 325.085 294.298 326.192 292.496L327.488 290.375C328.408 288.873 327.319 286.958 325.573 286.958Z" stroke="#9A3B82" stroke-width="0.938654" stroke-miterlimit="10" stroke-linecap="round"/>
<path d="M347.369 299.517C342.845 299.517 338.489 297.884 335.073 294.899L329.366 289.905H324.109L322.758 291.351C320.336 293.941 317.351 295.425 313.803 295.425H311.287C309.973 295.425 309.166 293.96 309.879 292.853L316.206 282.94H347.388V299.517H347.369Z" fill="#E57281"/>
<path d="M316.206 282.94L309.879 292.853C309.166 293.96 309.973 295.425 311.287 295.425H313.803C317.351 295.425 320.336 293.96 322.758 291.351L324.109 289.905H329.366L335.073 294.899C338.471 297.865 342.845 299.517 347.369 299.517" stroke="#9A3B82" stroke-width="0.938654" stroke-miterlimit="10" stroke-linecap="round"/>
<path d="M474.125 277.252L445.458 309.279C439.432 316.018 430.815 319.867 421.766 319.867C403.894 319.867 391.523 302.032 397.793 285.287L431.848 205.276L420.34 198.837C418.706 197.56 417.918 195.476 418.275 193.449L420.227 180.289C420.828 177.36 423.813 175.07 426.723 174.394L440.202 171.353C441.347 171.09 442.398 172.066 442.21 173.211L440.258 183.368C439.488 188.324 442.83 192.604 447.786 193.449C451.841 194.143 454.694 198.217 454.319 202.31L445.139 259.567C445.12 259.605 454.525 274.267 474.125 277.252Z" fill="#E57281"/>
<path d="M452.142 215.92L441.065 287.84" stroke="#9A3B82" stroke-width="0.938654" stroke-miterlimit="10" stroke-linecap="round"/>
<path d="M429.182 181.246L429.032 185.902C428.976 187.817 430.121 189.506 431.773 189.976L449.026 193.467" stroke="#9A3B82" stroke-width="0.938654" stroke-miterlimit="10" stroke-linecap="round"/>
<path d="M460.759 194.969L446.96 193.129C442.417 192.322 439.32 188.079 439.958 183.517L441.741 173.324C441.91 172.366 441.047 171.559 440.108 171.784L426.028 175.069" stroke="#9A3B82" stroke-width="0.938654" stroke-miterlimit="10" stroke-linecap="round"/>
<path d="M453.137 300.643L490.458 259.117" stroke="#FE5244" stroke-width="1.12638" stroke-miterlimit="10"/>
<path d="M432.242 205.295H438.832" stroke="#9A3B82" stroke-width="0.938654" stroke-miterlimit="10" stroke-linecap="round"/>
<path d="M429.201 182.485V183.987C429.201 185.771 430.496 187.235 432.092 187.235H434.157C435.058 187.235 435.772 186.428 435.772 185.414L435.903 175.614C435.922 174.094 434.307 173.155 432.993 173.474" stroke="#9A3B82" stroke-width="0.938654" stroke-miterlimit="10" stroke-linecap="round"/>
<path d="M435.902 182.485V183.987C435.902 185.771 437.198 187.235 438.793 187.235H440.107" stroke="#9A3B82" stroke-width="0.938654" stroke-miterlimit="10" stroke-linecap="round"/>
<path d="M560.575 419.251L582.371 600.636" stroke="#66B0F0" stroke-width="1.12638" stroke-miterlimit="10"/>
<path d="M466.109 419.251L444.313 600.636" stroke="#66B0F0" stroke-width="1.12638" stroke-miterlimit="10"/>
<path d="M451.785 538.348H574.88" stroke="#66B0F0" stroke-width="1.12638" stroke-miterlimit="10"/>
<path d="M453.55 419.815H572.008C573.585 419.815 574.861 418.538 574.861 416.961V413.094C574.861 411.517 573.585 410.24 572.008 410.24H453.55C451.973 410.24 450.696 411.517 450.696 413.094V416.961C450.696 418.538 451.973 419.815 453.55 419.815Z" fill="white" stroke="#FFCF2D" stroke-width="1.12638" stroke-miterlimit="10"/>
</svg>
